<?xml version="1.0" encoding="UTF-8"?>
<svg id="Layer_10" data-name="Layer 10" xmlns="http://www.w3.org/2000/svg" xmlns:xlink="http://www.w3.org/1999/xlink" viewBox="0 0 24 24">
  <defs>
    <style>
      .cls-1 {
        fill: #fff;
      }

      .cls-2 {
        opacity: .4;
      }

      .cls-3 {
        fill: url(#linear-gradient);
      }
    </style>
    <linearGradient id="linear-gradient" x1="5.28" y1="6.27" x2="19.42" y2="20.41" gradientUnits="userSpaceOnUse">
      <stop offset="0" stop-color="#e0e2fb"/>
      <stop offset=".25" stop-color="#a8bfe2"/>
      <stop offset=".5" stop-color="#c6f7cf"/>
      <stop offset=".75" stop-color="#abefea"/>
      <stop offset="1" stop-color="#f0f8f7"/>
    </linearGradient>
  </defs>
  <g id="Calendar">
    <path class="cls-3" d="M20,4h-2v-1c0-.55-.45-1-1-1s-1,.45-1,1v1h-8v-1c0-.55-.45-1-1-1s-1,.45-1,1v1h-2c-1.1,0-2,.9-2,2v2.2c0,.44.36.8.8.8h18.4c.44,0,.8-.36.8-.8v-2.2c0-1.1-.9-2-2-2ZM14.7,9.99h-5.4c-.17,0-.3.13-.3.3v4.9c0,.17.13.3.3.3h5.4c.17,0,.3-.13.3-.3v-4.9c0-.17-.13-.3-.3-.3ZM21.2,9.99h-4.9c-.17,0-.3.13-.3.3v4.9c0,.17.13.3.3.3h5.4c.17,0,.3-.13.3-.3v-4.4c0-.44-.36-.8-.8-.8ZM14.7,16.49h-5.4c-.17,0-.3.13-.3.3v4.9c0,.17.13.3.3.3h5.4c.17,0,.3-.13.3-.3v-4.9c0-.17-.13-.3-.3-.3ZM21.7,16.49h-5.4c-.17,0-.3.13-.3.3v4.9c0,.17.13.3.3.3h3.7c1.1,0,2-.9,2-2v-3.2c0-.17-.13-.3-.3-.3ZM7.7,16.49H2.3c-.17,0-.3.13-.3.3v3.2c0,1.1.9,2,2,2h3.7c.17,0,.3-.13.3-.3v-4.9c0-.17-.13-.3-.3-.3ZM7.7,9.99H2.8c-.44,0-.8.36-.8.8v4.4c0,.17.13.3.3.3h5.4c.17,0,.3-.13.3-.3v-4.9c0-.17-.13-.3-.3-.3Z"/>
    <g class="cls-2">
      <path class="cls-1" d="M17,2.2c.44,0,.8.36.8.8v1.2h2.2c.99,0,1.8.81,1.8,1.8v2.2c0,.33-.27.6-.6.6H2.8c-.33,0-.6-.27-.6-.6v-2.2c0-.99.81-1.8,1.8-1.8h2.2v-1.2c0-.44.36-.8.8-.8s.8.36.8.8v1.2h8.4v-1.2c0-.44.36-.8.8-.8M21.2,10.19c.33,0,.6.27.6.6v4.4c0,.06-.04.1-.1.1h-5.4c-.06,0-.1-.04-.1-.1v-4.9c0-.06.04-.1.1-.1h4.9M14.7,10.19c.06,0,.1.04.1.1v4.9c0,.06-.04.1-.1.1h-5.4c-.06,0-.1-.04-.1-.1v-4.9c0-.06.04-.1.1-.1h5.4M7.7,10.19c.06,0,.1.04.1.1v4.9c0,.06-.04.1-.1.1H2.3c-.06,0-.1-.04-.1-.1v-4.4c0-.33.27-.6.6-.6h4.9M21.7,16.69c.06,0,.1.04.1.1v3.2c0,.99-.81,1.8-1.8,1.8h-3.7c-.06,0-.1-.04-.1-.1v-4.9c0-.06.04-.1.1-.1h5.4M14.7,16.69c.06,0,.1.04.1.1v4.9c0,.06-.04.1-.1.1h-5.4c-.06,0-.1-.04-.1-.1v-4.9c0-.06.04-.1.1-.1h5.4M7.7,16.69c.06,0,.1.04.1.1v4.9c0,.06-.04.1-.1.1h-3.7c-.99,0-1.8-.81-1.8-1.8v-3.2c0-.06.04-.1.1-.1h5.4M17,2c-.55,0-1,.45-1,1v1h-8v-1c0-.55-.45-1-1-1s-1,.45-1,1v1h-2c-1.1,0-2,.9-2,2v2.2c0,.44.36.8.8.8h18.4c.44,0,.8-.36.8-.8v-2.2c0-1.1-.9-2-2-2h-2v-1c0-.55-.45-1-1-1h0ZM21.2,9.99h-4.9c-.17,0-.3.13-.3.3v4.9c0,.17.13.3.3.3h5.4c.17,0,.3-.13.3-.3v-4.4c0-.44-.36-.8-.8-.8h0ZM14.7,9.99h-5.4c-.17,0-.3.13-.3.3v4.9c0,.17.13.3.3.3h5.4c.17,0,.3-.13.3-.3v-4.9c0-.17-.13-.3-.3-.3h0ZM7.7,9.99H2.8c-.44,0-.8.36-.8.8v4.4c0,.17.13.3.3.3h5.4c.17,0,.3-.13.3-.3v-4.9c0-.17-.13-.3-.3-.3h0ZM21.7,16.49h-5.4c-.17,0-.3.13-.3.3v4.9c0,.17.13.3.3.3h3.7c1.1,0,2-.9,2-2v-3.2c0-.17-.13-.3-.3-.3h0ZM14.7,16.49h-5.4c-.17,0-.3.13-.3.3v4.9c0,.17.13.3.3.3h5.4c.17,0,.3-.13.3-.3v-4.9c0-.17-.13-.3-.3-.3h0ZM7.7,16.49H2.3c-.17,0-.3.13-.3.3v3.2c0,1.1.9,2,2,2h3.7c.17,0,.3-.13.3-.3v-4.9c0-.17-.13-.3-.3-.3h0Z"/>
    </g>
  </g>
</svg>