<?xml version="1.0" encoding="UTF-8"?>
<svg id="Layer_10" data-name="Layer 10" xmlns="http://www.w3.org/2000/svg" xmlns:xlink="http://www.w3.org/1999/xlink" viewBox="0 0 24 24">
  <defs>
    <style>
      .cls-1 {
        fill: #fff;
      }

      .cls-2 {
        opacity: .4;
      }

      .cls-3 {
        fill: url(#linear-gradient);
      }
    </style>
    <linearGradient id="linear-gradient" x1="4.99" y1="3.53" x2="17.72" y2="16.25" gradientUnits="userSpaceOnUse">
      <stop offset="0" stop-color="#e0e2fb"/>
      <stop offset=".25" stop-color="#a8bfe2"/>
      <stop offset=".5" stop-color="#c6f7cf"/>
      <stop offset=".75" stop-color="#abefea"/>
      <stop offset="1" stop-color="#f0f8f7"/>
    </linearGradient>
  </defs>
  <g id="Shield">
    <path class="cls-3" d="M19.64,4.69l-6.51-2.48c-.73-.28-1.53-.28-2.26,0l-6.51,2.48c-.82.31-1.36,1.1-1.36,1.98v3.56c0,5.51,3.69,10.33,9,11.78,5.31-1.45,9-6.27,9-11.78v-3.56c0-.88-.54-1.67-1.36-1.98ZM12,5.37c1.45,0,2.62,1.17,2.62,2.62s-1.17,2.62-2.62,2.62-2.62-1.17-2.62-2.62,1.17-2.62,2.62-2.62ZM12,19.81c-2.63-.88-4.72-2.79-5.89-5.19,1.44-1.63,3.54-2.67,5.89-2.67s4.45,1.03,5.89,2.67c-1.17,2.4-3.26,4.31-5.89,5.19Z"/>
    <g class="cls-2">
      <path class="cls-1" d="M12,2.2c.36,0,.72.07,1.06.19l6.51,2.48c.74.28,1.24,1,1.24,1.79v3.56c0,5.38-3.62,10.13-8.8,11.57-5.18-1.44-8.8-6.18-8.8-11.57v-3.56c0-.79.5-1.51,1.24-1.79l6.51-2.48c.34-.13.7-.19,1.06-.19M12,10.81c1.55,0,2.82-1.26,2.82-2.82s-1.26-2.82-2.82-2.82-2.82,1.26-2.82,2.82,1.26,2.82,2.82,2.82M12,20.02l.06-.02c2.61-.87,4.79-2.8,6-5.29l.06-.12-.09-.1c-1.53-1.74-3.73-2.73-6.04-2.73s-4.5,1-6.04,2.73l-.09.1.06.12c1.21,2.49,3.4,4.42,6,5.29l.06.02M12,2c-.38,0-.77.07-1.13.21l-6.51,2.48c-.82.31-1.36,1.1-1.36,1.98v3.56c0,5.51,3.69,10.33,9,11.78,5.31-1.45,9-6.27,9-11.78v-3.56c0-.88-.54-1.67-1.36-1.98l-6.51-2.48c-.36-.14-.75-.21-1.13-.21h0ZM12,10.61c-1.45,0-2.62-1.17-2.62-2.62s1.17-2.62,2.62-2.62,2.62,1.17,2.62,2.62-1.17,2.62-2.62,2.62h0ZM12,19.81c-2.63-.88-4.72-2.79-5.89-5.19,1.44-1.63,3.54-2.67,5.89-2.67s4.45,1.03,5.89,2.67c-1.17,2.4-3.26,4.31-5.89,5.19h0Z"/>
    </g>
  </g>
</svg>