<?xml version="1.0" encoding="UTF-8"?>
<svg id="Layer_10" data-name="Layer 10" xmlns="http://www.w3.org/2000/svg" xmlns:xlink="http://www.w3.org/1999/xlink" viewBox="0 0 24 24">
  <defs>
    <style>
      .cls-1 {
        fill: #fff;
      }

      .cls-2 {
        opacity: .4;
      }

      .cls-3 {
        fill: url(#linear-gradient);
      }
    </style>
    <linearGradient id="linear-gradient" x1="5.73" y1="7.33" x2="16.69" y2="18.29" gradientUnits="userSpaceOnUse">
      <stop offset="0" stop-color="#e0e2fb"/>
      <stop offset=".25" stop-color="#a8bfe2"/>
      <stop offset=".5" stop-color="#c6f7cf"/>
      <stop offset=".75" stop-color="#abefea"/>
      <stop offset="1" stop-color="#f0f8f7"/>
    </linearGradient>
  </defs>
  <g id="Comunity_1">
    <path class="cls-3" d="M12,11c1.79,0,3.25-1.46,3.25-3.25s-1.46-3.25-3.25-3.25-3.25,1.46-3.25,3.25,1.46,3.25,3.25,3.25ZM13,12.5h-2c-2.76,0-5,2.24-5,5,0,1.1.9,2,2,2h8c1.1,0,2-.9,2-2,0-2.76-2.24-5-5-5ZM14.89,10.5c.5.61,1.26,1,2.11,1,1.52,0,2.75-1.23,2.75-2.75s-1.23-2.75-2.75-2.75c-.46,0-.89.12-1.27.33.17.44.27.92.27,1.42,0,1.07-.43,2.03-1.11,2.75ZM18,12.5h-2c-.05,0-.1.01-.15.01,1.73.99,2.9,2.85,2.9,4.99,0,.35-.07.69-.19,1h1.44c1.1,0,2-.9,2-2,0-2.21-1.79-4-4-4ZM7,11.5c.85,0,1.6-.4,2.11-1-.68-.72-1.11-1.68-1.11-2.75,0-.5.1-.98.27-1.42-.38-.2-.81-.33-1.27-.33-1.52,0-2.75,1.23-2.75,2.75s1.23,2.75,2.75,2.75ZM8.15,12.51s-.1-.01-.15-.01h-2c-2.21,0-4,1.79-4,4,0,1.1.9,2,2,2h1.44c-.12-.31-.19-.65-.19-1,0-2.13,1.17-3.99,2.9-4.99Z"/>
    <g class="cls-2">
      <path class="cls-1" d="M12,4.7c1.68,0,3.05,1.37,3.05,3.05s-1.37,3.05-3.05,3.05-3.05-1.37-3.05-3.05,1.37-3.05,3.05-3.05M17,6.2c1.41,0,2.55,1.14,2.55,2.55s-1.14,2.55-2.55,2.55c-.69,0-1.35-.29-1.84-.8.67-.77,1.04-1.74,1.04-2.75,0-.44-.08-.88-.22-1.32.33-.15.68-.23,1.02-.23M7,6.2c.35,0,.69.08,1.02.23-.15.44-.22.88-.22,1.32,0,1.01.37,1.98,1.04,2.75-.48.51-1.14.8-1.84.8-1.41,0-2.55-1.14-2.55-2.55s1.14-2.55,2.55-2.55M18,12.7c2.1,0,3.8,1.7,3.8,3.8,0,.99-.81,1.8-1.8,1.8h-1.17c.08-.26.12-.53.12-.8,0-1.9-.92-3.69-2.45-4.8h1.5M13,12.7c2.65,0,4.8,2.15,4.8,4.8,0,.99-.81,1.8-1.8,1.8h-8c-.99,0-1.8-.81-1.8-1.8,0-2.65,2.15-4.8,4.8-4.8h2M7.5,12.7c-1.52,1.11-2.45,2.9-2.45,4.8,0,.27.04.54.12.8h-1.17c-.99,0-1.8-.81-1.8-1.8,0-2.1,1.7-3.8,3.8-3.8h1.5M12,4.5c-1.79,0-3.25,1.46-3.25,3.25s1.46,3.25,3.25,3.25,3.25-1.46,3.25-3.25-1.46-3.25-3.25-3.25h0ZM17,6c-.46,0-.89.12-1.27.33.17.44.27.92.27,1.42,0,1.07-.43,2.03-1.11,2.75.5.61,1.26,1,2.11,1,1.52,0,2.75-1.23,2.75-2.75s-1.23-2.75-2.75-2.75h0ZM7,6c-1.52,0-2.75,1.23-2.75,2.75s1.23,2.75,2.75,2.75c.85,0,1.6-.4,2.11-1-.68-.72-1.11-1.68-1.11-2.75,0-.5.1-.98.27-1.42-.38-.2-.81-.33-1.27-.33h0ZM18,12.5h-2c-.05,0-.1.01-.15.01,1.73.99,2.9,2.85,2.9,4.99,0,.35-.07.69-.19,1h1.44c1.1,0,2-.9,2-2,0-2.21-1.79-4-4-4h0ZM13,12.5h-2c-2.76,0-5,2.24-5,5,0,1.1.9,2,2,2h8c1.1,0,2-.9,2-2,0-2.76-2.24-5-5-5h0ZM8,12.5h-2c-2.21,0-4,1.79-4,4,0,1.1.9,2,2,2h1.44c-.12-.31-.19-.65-.19-1,0-2.13,1.17-3.99,2.9-4.99-.05,0-.1-.01-.15-.01h0Z"/>
    </g>
  </g>
</svg>