<?xml version="1.0" encoding="UTF-8"?>
<svg id="Layer_10" data-name="Layer 10" xmlns="http://www.w3.org/2000/svg" xmlns:xlink="http://www.w3.org/1999/xlink" viewBox="0 0 24 24">
  <defs>
    <style>
      .cls-1 {
        fill: #fff;
      }

      .cls-2 {
        fill: url(#linear-gradient);
      }

      .cls-3 {
        opacity: .5;
      }
    </style>
    <linearGradient id="linear-gradient" x1="3.97" y1="3.97" x2="18.11" y2="18.11" gradientUnits="userSpaceOnUse">
      <stop offset="0" stop-color="#e0e2fb"/>
      <stop offset=".25" stop-color="#a8bfe2"/>
      <stop offset=".5" stop-color="#c6f7cf"/>
      <stop offset=".75" stop-color="#abefea"/>
      <stop offset="1" stop-color="#f0f8f7"/>
    </linearGradient>
  </defs>
  <g id="Check">
    <path class="cls-2" d="M21.21,10.13l-.6-.58c-.52-.5-.8-1.19-.79-1.91v-.83c.04-1.46-1.14-2.64-2.59-2.64-.01,0-.03,0-.04,0h-.83s-.03.01-.04.01c-.7,0-1.38-.29-1.87-.79l-.58-.6c-.51-.53-1.19-.79-1.87-.79s-1.36.26-1.87.79l-.58.6c-.49.51-1.17.79-1.87.79-.01,0-.03,0-.04,0h-.83s-.03-.01-.04-.01c-1.45,0-2.63,1.19-2.6,2.64v.83c.02.72-.26,1.41-.78,1.91l-.6.58c-1.06,1.02-1.06,2.72,0,3.74l.6.58c.52.5.8,1.19.79,1.91v.83c-.04,1.46,1.14,2.64,2.59,2.64.01,0,.03,0,.04,0h.83s.03-.01.04-.01c.7,0,1.38.29,1.87.79l.58.6c.51.53,1.19.79,1.87.79s1.36-.26,1.87-.79l.58-.6c.49-.51,1.17-.79,1.87-.79.01,0,.03,0,.04,0h.83s.03.01.04.01c1.45,0,2.63-1.19,2.6-2.64v-.83c-.02-.72.26-1.41.78-1.91l.6-.58c1.06-1.02,1.06-2.72,0-3.74ZM17.42,9.56l-6.5,6.5c-.45.45-1.18.45-1.62,0l-2.71-2.71c-.45-.45-.45-1.18,0-1.62.45-.45,1.18-.45,1.62,0l1.08,1.08c.45.45,1.18.45,1.62,0l4.87-4.87c.45-.45,1.18-.45,1.62,0h0c.45.45.45,1.18,0,1.62Z"/>
    <g class="cls-3">
      <path class="cls-1" d="M12,2.15c.67,0,1.3.26,1.76.75l.58.6c.52.53,1.24.84,1.98.84h.04s.83-.01.83-.01h.04c.66,0,1.28.26,1.75.73.46.47.72,1.1.71,1.76v.83c-.02.76.28,1.49.82,2.02l.6.58c.48.47.75,1.09.75,1.76s-.26,1.3-.75,1.76l-.6.58c-.54.53-.85,1.26-.84,2.02v.83c.02.66-.23,1.29-.69,1.76-.47.47-1.09.73-1.75.73h-.04s-.83-.01-.83-.01h-.04c-.74,0-1.46.3-1.98.84l-.58.6c-.47.48-1.09.75-1.76.75s-1.3-.26-1.76-.75l-.58-.6c-.52-.53-1.24-.84-1.98-.84h-.04s-.83.01-.83.01h-.04c-.66,0-1.28-.26-1.75-.73-.46-.47-.72-1.1-.71-1.76v-.83c.02-.76-.28-1.49-.82-2.02l-.6-.58c-.48-.47-.75-1.09-.75-1.76s.26-1.3.75-1.76l.6-.58c.54-.53.85-1.26.84-2.02v-.83c-.02-.66.23-1.29.69-1.76.47-.47,1.09-.73,1.75-.73h.04s.83.01.83.01h.04c.74,0,1.46-.3,1.98-.84l.58-.6c.47-.48,1.09-.75,1.76-.75M10.1,13c-.27,0-.52-.1-.71-.29l-1.08-1.08c-.25-.25-.57-.38-.92-.38s-.67.14-.92.38c-.51.51-.51,1.33,0,1.84l2.71,2.71c.25.25.57.38.92.38s.67-.14.92-.38l6.5-6.5c.51-.51.51-1.33,0-1.84-.25-.25-.57-.38-.92-.38s-.67.14-.92.38l-4.87,4.87c-.19.19-.44.29-.71.29M12,2c-.68,0-1.36.26-1.87.79l-.58.6c-.49.51-1.17.79-1.87.79-.01,0-.03,0-.04,0h-.83s-.03-.01-.04-.01c-1.45,0-2.63,1.19-2.6,2.64v.83c.02.72-.26,1.41-.78,1.91l-.6.58c-1.05,1.02-1.05,2.72,0,3.74l.6.58c.52.5.8,1.19.79,1.91v.83c-.04,1.46,1.14,2.64,2.59,2.64.01,0,.03,0,.04,0h.83s.03-.01.04-.01c.7,0,1.38.29,1.87.79l.58.6c.51.53,1.19.79,1.87.79s1.36-.26,1.87-.79l.58-.6c.49-.51,1.17-.79,1.87-.79.01,0,.03,0,.04,0h.83s.03.01.04.01c1.45,0,2.63-1.19,2.6-2.64v-.83c-.02-.72.26-1.41.78-1.91l.6-.58c1.05-1.02,1.05-2.72,0-3.74l-.6-.58c-.52-.5-.8-1.19-.79-1.91v-.83c.04-1.46-1.14-2.64-2.59-2.64-.01,0-.03,0-.04,0h-.83s-.03.01-.04.01c-.7,0-1.38-.29-1.87-.79l-.58-.6c-.51-.53-1.19-.79-1.87-.79h0ZM10.1,13.15c.29,0,.59-.11.81-.34l4.87-4.87c.22-.22.52-.34.81-.34s.59.11.81.34h0c.45.45.45,1.18,0,1.62l-6.5,6.5c-.22.22-.52.34-.81.34s-.59-.11-.81-.34l-2.71-2.71c-.45-.45-.45-1.18,0-1.62.22-.22.52-.34.81-.34s.59.11.81.34l1.08,1.08c.22.22.52.34.81.34h0Z"/>
    </g>
  </g>
</svg>