<?xml version="1.0" encoding="UTF-8"?>
<svg id="Layer_10" data-name="Layer 10" xmlns="http://www.w3.org/2000/svg" xmlns:xlink="http://www.w3.org/1999/xlink" viewBox="0 0 24 24">
  <defs>
    <style>
      .cls-1 {
        fill: #fff;
      }

      .cls-2 {
        fill: url(#linear-gradient);
      }

      .cls-3 {
        opacity: .5;
      }
    </style>
    <linearGradient id="linear-gradient" x1="3.97" y1="3.97" x2="18.11" y2="18.11" gradientUnits="userSpaceOnUse">
      <stop offset="0" stop-color="#e0e2fb"/>
      <stop offset=".25" stop-color="#a8bfe2"/>
      <stop offset=".5" stop-color="#c6f7cf"/>
      <stop offset=".75" stop-color="#abefea"/>
      <stop offset="1" stop-color="#f0f8f7"/>
    </linearGradient>
  </defs>
  <g id="Check">
    <path class="cls-2" d="M21.21,10.13l-.6-.58c-.52-.5-.8-1.19-.79-1.91v-.83c.04-1.46-1.14-2.64-2.59-2.64-.01,0-.03,0-.04,0h-.83s-.03.01-.04.01c-.7,0-1.38-.29-1.87-.79l-.58-.6c-.51-.53-1.19-.79-1.87-.79s-1.36.26-1.87.79l-.58.6c-.49.51-1.17.79-1.87.79-.01,0-.03,0-.04,0h-.83s-.03-.01-.04-.01c-1.45,0-2.63,1.19-2.6,2.64v.83c.02.72-.26,1.41-.78,1.91l-.6.58c-1.06,1.02-1.06,2.72,0,3.74l.6.58c.52.5.8,1.19.79,1.91v.83c-.04,1.46,1.14,2.64,2.59,2.64.01,0,.03,0,.04,0h.83s.03-.01.04-.01c.7,0,1.38.29,1.87.79l.58.6c.51.53,1.19.79,1.87.79s1.36-.26,1.87-.79l.58-.6c.49-.51,1.17-.79,1.87-.79.01,0,.03,0,.04,0h.83s.03.01.04.01c1.45,0,2.63-1.19,2.6-2.64v-.83c-.02-.72.26-1.41.78-1.91l.6-.58c1.06-1.02,1.06-2.72,0-3.74ZM17.42,9.56l-6.5,6.5c-.45.45-1.18.45-1.62,0l-2.71-2.71c-.45-.45-.45-1.18,0-1.62.45-.45,1.18-.45,1.62,0l1.08,1.08c.45.45,1.18.45,1.62,0l4.87-4.87c.45-.45,1.18-.45,1.62,0h0c.45.45.45,1.18,0,1.62Z"/>
    <g class="cls-3">
      <path class="cls-1" d="M12,2.2c.66,0,1.27.26,1.73.73l.58.6c.52.54,1.26.85,2.05.85h.87c.65-.01,1.26.24,1.71.7.46.46.7,1.07.69,1.72v.83c-.02.77.29,1.52.84,2.06l.6.58c.47.46.73,1.07.73,1.73s-.26,1.27-.73,1.73l-.6.58c-.55.54-.86,1.29-.85,2.06v.83c.02.65-.22,1.26-.68,1.72-.46.46-1.06.72-1.75.72,0,0,0,0,0,0h-.88c-.75-.01-1.49.3-2.01.84l-.58.6c-.46.47-1.07.73-1.73.73s-1.27-.26-1.73-.73l-.58-.6c-.52-.54-1.26-.85-2.06-.85h-.87c-.65.01-1.26-.24-1.71-.7-.46-.46-.7-1.07-.69-1.72v-.83c.02-.77-.29-1.52-.84-2.06l-.6-.58c-.47-.46-.73-1.07-.73-1.73s.26-1.27.73-1.73l.6-.58c.55-.54.86-1.29.85-2.06v-.83c-.02-.65.22-1.26.68-1.72.46-.46,1.06-.72,1.75-.72h.88c.75.01,1.49-.3,2.01-.84l.58-.6c.46-.47,1.07-.73,1.73-.73M10.1,12.95c-.25,0-.49-.1-.67-.28l-1.08-1.08c-.25-.25-.59-.4-.95-.4s-.7.14-.95.4c-.53.53-.53,1.38,0,1.91l2.71,2.71c.25.25.59.4.95.4s.7-.14.95-.4l6.5-6.5c.53-.53.53-1.38,0-1.91-.25-.25-.59-.4-.95-.4s-.7.14-.95.4l-4.87,4.87c-.18.18-.42.28-.67.28M12,2c-.68,0-1.36.26-1.87.79l-.58.6c-.49.51-1.17.79-1.87.79-.01,0-.03,0-.04,0h-.83s-.03-.01-.04-.01c-1.45,0-2.63,1.19-2.6,2.64v.83c.02.72-.26,1.41-.78,1.91l-.6.58c-1.06,1.02-1.06,2.72,0,3.74l.6.58c.52.5.8,1.19.79,1.91v.83c-.04,1.46,1.14,2.64,2.59,2.64.01,0,.03,0,.04,0h.83s.03-.01.04-.01c.7,0,1.38.29,1.87.79l.58.6c.51.53,1.19.79,1.87.79s1.36-.26,1.87-.79l.58-.6c.49-.51,1.17-.79,1.87-.79.01,0,.03,0,.04,0h.83s.03.01.04.01c1.45,0,2.63-1.19,2.6-2.64v-.83c-.02-.72.26-1.41.78-1.91l.6-.58c1.05-1.02,1.05-2.72,0-3.74l-.6-.58c-.52-.5-.8-1.19-.79-1.91v-.83c.04-1.46-1.14-2.64-2.59-2.64-.01,0-.03,0-.04,0h-.83s-.03.01-.04.01c-.7,0-1.38-.29-1.87-.79l-.58-.6c-.51-.53-1.19-.79-1.87-.79h0ZM10.1,13.15c.29,0,.59-.11.81-.34l4.87-4.87c.22-.22.52-.34.81-.34s.59.11.81.34h0c.45.45.45,1.18,0,1.62l-6.5,6.5c-.22.22-.52.34-.81.34s-.59-.11-.81-.34l-2.71-2.71c-.45-.45-.45-1.18,0-1.62.22-.22.52-.34.81-.34s.59.11.81.34l1.08,1.08c.22.22.52.34.81.34h0Z"/>
    </g>
  </g>
</svg>