<?xml version="1.0" encoding="UTF-8"?>
<svg id="Layer_10" data-name="Layer 10" xmlns="http://www.w3.org/2000/svg" xmlns:xlink="http://www.w3.org/1999/xlink" viewBox="0 0 24 24">
  <defs>
    <style>
      .cls-1 {
        fill: #fff;
      }

      .cls-2 {
        opacity: .4;
      }

      .cls-3 {
        fill: url(#linear-gradient);
      }
    </style>
    <linearGradient id="linear-gradient" x1="7" y1="6.76" x2="16.71" y2="16.47" gradientUnits="userSpaceOnUse">
      <stop offset="0" stop-color="#e0e2fb"/>
      <stop offset=".25" stop-color="#a8bfe2"/>
      <stop offset=".5" stop-color="#c6f7cf"/>
      <stop offset=".75" stop-color="#abefea"/>
      <stop offset="1" stop-color="#f0f8f7"/>
    </linearGradient>
  </defs>
  <g id="Light">
    <path class="cls-3" d="M10.6,2.14c-2.73.53-4.93,2.73-5.46,5.47-.51,2.63.46,5.06,2.22,6.62.29.26.47.61.47.99v.28c0,1.66,1.34,3,3,3h2.16c1.66,0,3-1.34,3-3v-.09c0-.42.21-.8.53-1.07,1.52-1.28,2.48-3.2,2.48-5.34,0-4.33-3.92-7.73-8.4-6.86ZM14,20h-4c-.55,0-1,.45-1,1s.45,1,1,1h4c.55,0,1-.45,1-1s-.45-1-1-1Z"/>
    <g class="cls-2">
      <path class="cls-1" d="M12,2.15c3.78,0,6.85,3.07,6.85,6.85,0,2.02-.89,3.92-2.43,5.23-.37.31-.58.74-.58,1.18v.09c0,1.57-1.28,2.85-2.85,2.85h-2.16c-1.57,0-2.85-1.28-2.85-2.85v-.28c0-.41-.19-.81-.52-1.1-1.83-1.63-2.64-4.05-2.17-6.48.52-2.68,2.67-4.83,5.34-5.35.46-.09.92-.13,1.38-.13M14,20.15c.47,0,.85.38.85.85s-.38.85-.85.85h-4c-.47,0-.85-.38-.85-.85s.38-.85.85-.85h4M12,2c-.46,0-.93.04-1.4.14-2.73.53-4.93,2.73-5.46,5.47-.51,2.63.46,5.06,2.22,6.62.29.26.47.61.47.99v.28c0,1.66,1.34,3,3,3h2.16c1.66,0,3-1.34,3-3v-.09c0-.42.21-.8.53-1.07,1.52-1.28,2.48-3.2,2.48-5.34,0-3.87-3.13-7-7-7h0ZM14,20h-4c-.55,0-1,.45-1,1s.45,1,1,1h4c.55,0,1-.45,1-1s-.45-1-1-1h0Z"/>
    </g>
  </g>
</svg>