<?xml version="1.0" encoding="UTF-8"?>
<svg id="Layer_10" data-name="Layer 10" xmlns="http://www.w3.org/2000/svg" xmlns:xlink="http://www.w3.org/1999/xlink" viewBox="0 0 24 24">
  <defs>
    <style>
      .cls-1 {
        fill: #fff;
      }

      .cls-2 {
        opacity: .4;
      }

      .cls-3 {
        fill: url(#linear-gradient);
      }
    </style>
    <linearGradient id="linear-gradient" x1="5.44" y1="5.44" x2="19.59" y2="19.59" gradientUnits="userSpaceOnUse">
      <stop offset="0" stop-color="#e0e2fb"/>
      <stop offset=".25" stop-color="#a8bfe2"/>
      <stop offset=".5" stop-color="#c6f7cf"/>
      <stop offset=".75" stop-color="#abefea"/>
      <stop offset="1" stop-color="#f0f8f7"/>
    </linearGradient>
  </defs>
  <g id="Grown">
    <path class="cls-3" d="M7.6,2.25c-.33-.33-.86-.33-1.19,0L2.15,6.5c-.32.32-.09.86.36.86h2.49v9.14c0,.83.67,1.5,1.5,1.5h1c.83,0,1.5-.67,1.5-1.5V7.36h2.49c.45,0,.68-.54.36-.86L7.6,2.25ZM21.49,16.64h-2.49V7.5c0-.83-.67-1.5-1.5-1.5h-1c-.83,0-1.5.67-1.5,1.5v9.14h-2.49c-.45,0-.68.54-.36.86l4.26,4.26c.33.33.86.33,1.19,0l4.26-4.26c.32-.32.09-.86-.36-.86Z"/>
    <g class="cls-2">
      <path class="cls-1" d="M7,2.2c.17,0,.33.07.45.19l4.26,4.26c.09.09.11.21.07.33-.05.12-.15.19-.28.19h-2.69v9.34c0,.72-.58,1.3-1.3,1.3h-1c-.72,0-1.3-.58-1.3-1.3V7.16h-2.69c-.13,0-.23-.07-.28-.19-.05-.12-.02-.24.07-.33L6.55,2.39c.12-.12.28-.19.45-.19M17.5,6.2c.72,0,1.3.58,1.3,1.3v9.34h2.69c.13,0,.23.07.28.19.05.12.02.24-.07.33l-4.26,4.26c-.12.12-.28.19-.45.19s-.33-.07-.45-.19l-4.26-4.26c-.09-.09-.11-.21-.07-.33.05-.12.15-.19.28-.19h2.69V7.5c0-.72.58-1.3,1.3-1.3h1M7,2c-.22,0-.43.08-.6.25L2.15,6.5c-.32.32-.09.86.36.86h2.49v9.14c0,.83.67,1.5,1.5,1.5h1c.83,0,1.5-.67,1.5-1.5V7.36h2.49c.45,0,.68-.54.36-.86L7.6,2.25c-.16-.16-.38-.25-.6-.25h0ZM17.5,6h-1c-.83,0-1.5.67-1.5,1.5v9.14h-2.49c-.45,0-.68.54-.36.86l4.26,4.26c.16.16.38.25.6.25s.43-.08.6-.25l4.26-4.26c.32-.32.09-.86-.36-.86h-2.49V7.5c0-.83-.67-1.5-1.5-1.5h0Z"/>
    </g>
  </g>
</svg>