<?xml version="1.0" encoding="UTF-8"?>
<svg id="Layer_10" data-name="Layer 10" xmlns="http://www.w3.org/2000/svg" xmlns:xlink="http://www.w3.org/1999/xlink" viewBox="0 0 24 24">
  <defs>
    <style>
      .cls-1 {
        fill: #fff;
      }

      .cls-2 {
        fill: url(#linear-gradient);
      }
    </style>
    <linearGradient id="linear-gradient" x1="3" y1="12" x2="21" y2="12" gradientUnits="userSpaceOnUse">
      <stop offset="0" stop-color="#e0e2fb"/>
      <stop offset=".25" stop-color="#a8bfe2"/>
      <stop offset=".5" stop-color="#c6f7cf"/>
      <stop offset=".75" stop-color="#abefea"/>
      <stop offset="1" stop-color="#f0f8f7"/>
    </linearGradient>
  </defs>
  <g id="Shield">
    <path class="cls-2" d="M19.64,4.69l-6.51-2.48c-.73-.28-1.53-.28-2.26,0l-6.51,2.48c-.82.31-1.36,1.1-1.36,1.98v3.56c0,5.51,3.69,10.33,9,11.78,5.31-1.45,9-6.27,9-11.78v-3.56c0-.88-.54-1.67-1.36-1.98ZM12,5.37c1.45,0,2.62,1.17,2.62,2.62s-1.17,2.62-2.62,2.62-2.62-1.17-2.62-2.62,1.17-2.62,2.62-2.62ZM12,19.81c-2.63-.88-4.72-2.79-5.89-5.19,1.44-1.63,3.54-2.67,5.89-2.67s4.45,1.03,5.89,2.67c-1.17,2.4-3.26,4.31-5.89,5.19Z"/>
    <path class="cls-1" d="M12,2.15c.37,0,.73.07,1.08.2l6.51,2.48c.76.29,1.27,1.03,1.27,1.84v3.56c0,5.41-3.64,10.18-8.85,11.62-5.21-1.44-8.85-6.21-8.85-11.62v-3.56c0-.81.51-1.55,1.27-1.84l6.51-2.48c.35-.13.71-.2,1.08-.2M12,10.76c1.53,0,2.77-1.24,2.77-2.77s-1.24-2.77-2.77-2.77-2.77,1.24-2.77,2.77,1.24,2.77,2.77,2.77M12,19.97l.05-.02c2.59-.87,4.77-2.79,5.98-5.27l.04-.09-.07-.07c-1.52-1.73-3.71-2.72-6-2.72s-4.48.99-6,2.72l-.07.07.04.09c1.2,2.48,3.38,4.4,5.98,5.27l.05.02M12,2c-.38,0-.77.07-1.13.21l-6.51,2.48c-.82.31-1.36,1.1-1.36,1.98v3.56c0,5.51,3.69,10.33,9,11.78,5.31-1.45,9-6.27,9-11.78v-3.56c0-.88-.54-1.67-1.36-1.98l-6.51-2.48c-.36-.14-.75-.21-1.13-.21h0ZM12,10.61c-1.45,0-2.62-1.17-2.62-2.62s1.17-2.62,2.62-2.62,2.62,1.17,2.62,2.62-1.17,2.62-2.62,2.62h0ZM12,19.81c-2.63-.88-4.72-2.79-5.89-5.19,1.44-1.63,3.54-2.67,5.89-2.67s4.45,1.03,5.89,2.67c-1.17,2.4-3.26,4.31-5.89,5.19h0Z"/>
  </g>
</svg>