<?xml version="1.0" encoding="UTF-8"?>
<svg id="Layer_10" data-name="Layer 10" xmlns="http://www.w3.org/2000/svg" xmlns:xlink="http://www.w3.org/1999/xlink" viewBox="0 0 24 24">
  <defs>
    <style>
      .cls-1 {
        fill: #fff;
      }

      .cls-2 {
        fill: url(#linear-gradient);
      }

      .cls-3 {
        opacity: .5;
      }
    </style>
    <linearGradient id="linear-gradient" x1="4.06" y1="4.06" x2="18.2" y2="18.2" gradientUnits="userSpaceOnUse">
      <stop offset="0" stop-color="#e0e2fb"/>
      <stop offset=".25" stop-color="#a8bfe2"/>
      <stop offset=".5" stop-color="#c6f7cf"/>
      <stop offset=".75" stop-color="#abefea"/>
      <stop offset="1" stop-color="#f0f8f7"/>
    </linearGradient>
  </defs>
  <g id="Setting">
    <path class="cls-2" d="M20.62,10c-.48,0-.94-.28-1.11-.74-.08-.21-.17-.42-.26-.63-.2-.44-.08-.96.26-1.31h0c.54-.54.54-1.42,0-1.96l-.87-.87c-.54-.54-1.42-.54-1.96,0h0c-.34.34-.87.46-1.31.26-.21-.1-.42-.18-.63-.26-.46-.17-.74-.62-.74-1.11,0-.76-.62-1.38-1.38-1.38h-1.23c-.76,0-1.38.62-1.38,1.38,0,.49-.28.94-.74,1.11-.21.08-.42.17-.63.26-.44.2-.96.08-1.31-.26h0c-.54-.54-1.42-.54-1.96,0l-.87.87c-.54.54-.54,1.42,0,1.96h0c.34.34.46.87.26,1.31-.1.21-.18.42-.26.63-.17.46-.62.74-1.11.74-.76,0-1.38.62-1.38,1.38v1.23c0,.76.62,1.38,1.38,1.38.49,0,.94.28,1.11.74.08.21.17.42.26.63.2.44.08.96-.26,1.31h0c-.54.54-.54,1.42,0,1.96l.87.87c.54.54,1.42.54,1.96,0h0c.34-.34.87-.46,1.31-.26.21.1.42.18.63.26.46.17.74.62.74,1.11,0,.76.62,1.38,1.38,1.38h1.23c.76,0,1.38-.62,1.38-1.38,0-.49.28-.94.74-1.11.21-.08.42-.17.63-.26.44-.2.96-.08,1.31.26h0c.54.54,1.42.54,1.96,0l.87-.87c.54-.54.54-1.42,0-1.96h0c-.34-.34-.46-.87-.26-1.31.1-.21.18-.42.26-.63.17-.46.62-.74,1.11-.74.76,0,1.38-.62,1.38-1.38v-1.23c0-.76-.62-1.38-1.38-1.38ZM12,15.5c-1.93,0-3.5-1.57-3.5-3.5s1.57-3.5,3.5-3.5,3.5,1.57,3.5,3.5-1.57,3.5-3.5,3.5Z"/>
    <g class="cls-3">
      <path class="cls-1" d="M12.62,2.2c.65,0,1.18.53,1.18,1.18,0,.58.35,1.11.87,1.3.21.08.41.16.61.25.17.08.35.12.54.12.36,0,.73-.15.99-.42.22-.22.52-.35.84-.35s.61.12.84.35l.87.87c.22.22.35.52.35.84s-.12.61-.35.84c-.41.41-.53,1.03-.3,1.53.09.2.18.41.25.61.19.52.71.87,1.29.87.65,0,1.18.53,1.18,1.18v1.23c0,.65-.53,1.18-1.18,1.18-.58,0-1.11.35-1.29.87-.08.21-.16.41-.25.61-.23.5-.11,1.12.3,1.53.46.46.46,1.21,0,1.68l-.87.87c-.22.22-.52.35-.84.35s-.61-.12-.84-.35c-.27-.27-.63-.42-.99-.42-.19,0-.37.04-.54.12-.2.09-.41.18-.61.25-.52.19-.87.71-.87,1.3,0,.65-.53,1.18-1.18,1.18h-1.23c-.65,0-1.18-.53-1.18-1.18,0-.58-.35-1.1-.87-1.29-.21-.08-.41-.16-.61-.25-.17-.08-.35-.12-.54-.12-.36,0-.73.15-.99.42-.22.22-.52.35-.84.35s-.61-.12-.84-.35l-.87-.87c-.46-.46-.46-1.21,0-1.68.41-.41.53-1.03.3-1.53-.09-.2-.18-.41-.25-.61-.19-.52-.71-.87-1.29-.87-.65,0-1.18-.53-1.18-1.18v-1.23c0-.65.53-1.18,1.18-1.18.58,0,1.11-.35,1.29-.87.08-.21.16-.41.25-.61.23-.5.11-1.12-.3-1.53-.46-.46-.46-1.21,0-1.68l.87-.87c.22-.22.52-.35.84-.35s.61.12.84.35c.27.27.63.42.99.42.19,0,.37-.04.54-.12.2-.09.41-.18.61-.25.52-.19.87-.71.87-1.3,0-.65.53-1.18,1.18-1.18h1.23M12,15.7c2.04,0,3.7-1.66,3.7-3.7s-1.66-3.7-3.7-3.7-3.7,1.66-3.7,3.7,1.66,3.7,3.7,3.7M12.62,2h-1.23c-.76,0-1.38.62-1.38,1.38,0,.49-.28.94-.74,1.11-.21.08-.42.17-.63.26-.15.07-.3.1-.46.1-.31,0-.62-.13-.85-.36h0c-.27-.27-.62-.41-.98-.41s-.71.14-.98.41l-.87.87c-.54.54-.54,1.42,0,1.96h0c.34.34.46.87.26,1.31-.1.21-.18.42-.26.63-.17.46-.62.74-1.11.74-.76,0-1.38.62-1.38,1.38v1.23c0,.76.62,1.38,1.38,1.38.49,0,.94.28,1.11.74.08.21.17.42.26.63.2.44.08.96-.26,1.31h0c-.54.54-.54,1.42,0,1.96l.87.87c.27.27.62.41.98.41s.71-.14.98-.41h0c.23-.23.54-.36.85-.36.16,0,.31.03.46.1.21.1.42.18.63.26.46.17.74.62.74,1.11,0,.76.62,1.38,1.38,1.38h1.23c.76,0,1.38-.62,1.38-1.38,0-.49.28-.94.74-1.11.21-.08.42-.17.63-.26.15-.07.3-.1.46-.1.31,0,.62.13.85.36h0c.27.27.62.41.98.41s.71-.14.98-.41l.87-.87c.54-.54.54-1.42,0-1.96h0c-.34-.34-.46-.87-.26-1.31.1-.21.18-.42.26-.63.17-.46.62-.74,1.11-.74.76,0,1.38-.62,1.38-1.38v-1.23c0-.76-.62-1.38-1.38-1.38-.48,0-.94-.28-1.11-.74-.08-.21-.17-.42-.26-.63-.2-.44-.08-.96.26-1.31h0c.54-.54.54-1.42,0-1.96l-.87-.87c-.27-.27-.62-.41-.98-.41s-.71.14-.98.41h0c-.23.23-.54.36-.85.36-.16,0-.31-.03-.46-.1-.21-.1-.42-.18-.63-.26-.46-.17-.74-.62-.74-1.11,0-.76-.62-1.38-1.38-1.38h0ZM12,15.5c-1.93,0-3.5-1.57-3.5-3.5s1.57-3.5,3.5-3.5,3.5,1.57,3.5,3.5-1.57,3.5-3.5,3.5h0Z"/>
    </g>
  </g>
</svg>