<?xml version="1.0" encoding="UTF-8"?>
<svg id="Layer_10" data-name="Layer 10" xmlns="http://www.w3.org/2000/svg" xmlns:xlink="http://www.w3.org/1999/xlink" viewBox="0 0 24 24">
  <defs>
    <style>
      .cls-1 {
        fill: #fff;
      }

      .cls-2 {
        opacity: .4;
      }

      .cls-3 {
        fill: url(#linear-gradient);
      }
    </style>
    <linearGradient id="linear-gradient" x1="2.89" y1="12" x2="21.74" y2="12" gradientUnits="userSpaceOnUse">
      <stop offset="0" stop-color="#e0e2fb"/>
      <stop offset=".25" stop-color="#a8bfe2"/>
      <stop offset=".5" stop-color="#c6f7cf"/>
      <stop offset=".75" stop-color="#abefea"/>
      <stop offset="1" stop-color="#f0f8f7"/>
    </linearGradient>
  </defs>
  <g id="Telegram">
    <path class="cls-3" d="M20.3,3.69L2.49,11.31c-.71.31-.63,1.34.12,1.53l3.58.9c.7.18,1.44.05,2.03-.36l8.32-5.59c.41-.28.87.29.51.63l-6.14,5.81c-.47.45-.41,1.22.13,1.58l6.44,4.33c.93.62,2.19.07,2.35-1.03l2.15-14.12c.14-.94-.8-1.68-1.68-1.3Z"/>
    <g class="cls-2">
      <path class="cls-1" d="M20.78,3.79c.29,0,.58.13.77.36.19.23.28.51.23.81l-2.15,14.12c-.1.65-.65,1.12-1.31,1.12-.26,0-.51-.08-.73-.23l-6.44-4.33c-.21-.14-.34-.36-.36-.61-.02-.25.07-.49.25-.66l6.14-5.81c.18-.17.24-.43.15-.66-.09-.24-.32-.39-.56-.39-.12,0-.24.04-.34.11l-8.32,5.59c-.39.26-.84.4-1.3.4-.19,0-.38-.02-.57-.07l-3.58-.9c-.31-.08-.44-.33-.46-.54-.02-.21.07-.48.37-.61L20.38,3.87c.13-.06.27-.08.4-.08M20.78,3.59c-.16,0-.32.03-.48.1L2.49,11.31c-.71.31-.63,1.34.12,1.53l3.58.9c.2.05.41.08.62.08.5,0,.99-.15,1.42-.43l8.32-5.59c.08-.05.16-.07.23-.07.32,0,.57.43.28.71l-6.14,5.81c-.47.45-.41,1.22.13,1.58l6.44,4.33c.27.18.56.26.85.26.71,0,1.39-.51,1.51-1.29l2.15-14.12c.12-.77-.49-1.4-1.2-1.4h0Z"/>
    </g>
  </g>
</svg>