<?xml version="1.0" encoding="UTF-8"?>
<svg id="Layer_10" data-name="Layer 10" xmlns="http://www.w3.org/2000/svg" xmlns:xlink="http://www.w3.org/1999/xlink" viewBox="0 0 24 24">
  <defs>
    <style>
      .cls-1 {
        fill: #fff;
      }

      .cls-2 {
        opacity: .4;
      }

      .cls-3 {
        fill: url(#linear-gradient);
      }
    </style>
    <linearGradient id="linear-gradient" x1="5.62" y1="6.43" x2="17.61" y2="18.42" gradientUnits="userSpaceOnUse">
      <stop offset="0" stop-color="#ead0d0"/>
      <stop offset=".25" stop-color="#c17ca5"/>
      <stop offset=".5" stop-color="#edc8db"/>
      <stop offset=".75" stop-color="#d88dcd"/>
      <stop offset="1" stop-color="#f7f0f0"/>
    </linearGradient>
  </defs>
  <g id="Fire">
    <path class="cls-3" d="M12,2h0c-.31,0-.51.3-.41.59.24.72.4,1.46.4,2.18,0,2.42-2.08,4.98-2.97,4.98-.94,0-.15-2.04-.39-3.14-.14-.63-.76-.77-1.26-.38-1.43,1.09-3.89,3.55-3.86,7.54.03,4.59,3.87,8.25,8.43,8.25h.04c4.59,0,8.44-3.66,8.53-8.28.15-7.77-6.91-11.72-8.5-11.72ZM13.87,16.13c-1.03,1.03-2.71,1.03-3.75,0h0c-1.03-1.03-1.03-2.71,0-3.75.47-.47,1.21-1.23,1.87-1.23s1.41.76,1.87,1.23c1.03,1.03,1.03,2.71,0,3.75Z"/>
    <g class="cls-2">
      <path class="cls-1" d="M12,2.2c.79,0,2.96,1.05,4.82,2.95,1.63,1.66,3.56,4.5,3.48,8.57-.09,4.46-3.82,8.09-8.37,8.09S3.73,18.19,3.7,13.75c-.03-3.89,2.35-6.29,3.78-7.37.15-.11.31-.17.46-.17.25,0,.43.16.49.44.09.39.03.93-.02,1.44-.07.72-.14,1.35.15,1.67.11.13.27.19.46.19,1.1,0,3.17-2.74,3.17-5.18,0-.68-.14-1.43-.41-2.24-.03-.08-.02-.16.03-.23.05-.06.12-.1.19-.1h0M12,17.1c.76,0,1.48-.3,2.02-.83.54-.54.83-1.25.83-2.02s-.3-1.48-.83-2.02l-.04-.04c-.5-.5-1.25-1.25-1.97-1.25s-1.48.75-1.97,1.25l-.04.04c-.54.54-.83,1.25-.83,2.02s.3,1.48.83,2.02c.54.54,1.25.83,2.02.83M12,2h0c-.31,0-.51.3-.41.59.24.72.4,1.46.4,2.18,0,2.42-2.08,4.98-2.97,4.98-.94,0-.15-2.04-.39-3.14-.09-.39-.36-.6-.68-.6-.19,0-.39.07-.58.21-1.43,1.09-3.89,3.55-3.86,7.54.03,4.59,3.87,8.25,8.43,8.25h.04c4.59,0,8.44-3.66,8.53-8.28.15-7.77-6.91-11.72-8.5-11.72h0ZM12,16.9c-.68,0-1.36-.26-1.87-.78-1.03-1.03-1.03-2.71,0-3.75.47-.47,1.21-1.23,1.87-1.23s1.41.76,1.87,1.23c1.03,1.03,1.03,2.71,0,3.75-.52.52-1.2.78-1.87.78h0Z"/>
    </g>
  </g>
</svg>