<?xml version="1.0" encoding="UTF-8"?>
<svg id="Layer_10" data-name="Layer 10" xmlns="http://www.w3.org/2000/svg" xmlns:xlink="http://www.w3.org/1999/xlink" viewBox="0 0 24 24">
  <defs>
    <style>
      .cls-1 {
        fill: #fff;
      }

      .cls-2 {
        opacity: .4;
      }

      .cls-3 {
        fill: url(#linear-gradient);
      }
    </style>
    <linearGradient id="linear-gradient" x1="5.24" y1="5.24" x2="17.97" y2="17.97" gradientUnits="userSpaceOnUse">
      <stop offset="0" stop-color="#e0e2fb"/>
      <stop offset=".25" stop-color="#a8bfe2"/>
      <stop offset=".5" stop-color="#c6f7cf"/>
      <stop offset=".75" stop-color="#abefea"/>
      <stop offset="1" stop-color="#f0f8f7"/>
    </linearGradient>
  </defs>
  <g id="Map">
    <path class="cls-3" d="M14.59,5.57l-4.98-3.32c-.39-.26-.87-.32-1.31-.17l-4.76,1.59c-.33.11-.55.41-.55.76v14.62c0,.55.53.93,1.05.76l4.48-1.49c.29-.1.61-.05.87.12l4.98,3.32c.39.26.87.32,1.31.17l4.76-1.59c.33-.11.55-.41.55-.76V4.95c0-.55-.53-.93-1.05-.76l-4.48,1.49c-.29.1-.61.05-.87-.12ZM13.68,18.85l-3.45-2.3c-.14-.09-.22-.25-.22-.42V5.29c0-.16.18-.26.31-.17l3.45,2.3c.14.09.22.25.22.42v10.84c0,.16-.18.26-.31.17Z"/>
    <g class="cls-2">
      <path class="cls-1" d="M8.78,2.2c.26,0,.51.08.72.22l4.98,3.32c.2.13.43.2.67.2.13,0,.26-.02.38-.06l4.48-1.49c.06-.02.13-.03.19-.03.33,0,.6.27.6.6v14.62c0,.26-.17.49-.41.57l-4.76,1.59c-.13.04-.27.07-.41.07-.26,0-.51-.08-.72-.22l-4.98-3.32c-.2-.13-.43-.2-.67-.2-.13,0-.26.02-.38.06l-4.48,1.49c-.06.02-.13.03-.19.03-.33,0-.6-.27-.6-.6V4.42c0-.26.16-.49.41-.57l4.76-1.59c.13-.04.27-.07.41-.07M13.79,19.08c.22,0,.4-.18.4-.4V7.84c0-.23-.12-.45-.31-.58l-3.45-2.3c-.07-.04-.14-.07-.22-.07-.22,0-.4.18-.4.4v10.84c0,.23.12.45.31.58l3.45,2.3c.07.04.14.07.22.07M8.78,2c-.16,0-.32.03-.47.08l-4.76,1.59c-.33.11-.55.41-.55.76v14.62c0,.46.37.8.8.8.08,0,.17-.01.25-.04l4.48-1.49c.1-.03.21-.05.32-.05.2,0,.39.06.55.17l4.98,3.32c.25.17.54.25.83.25.16,0,.32-.03.47-.08l4.76-1.59c.33-.11.55-.41.55-.76V4.95c0-.46-.37-.8-.8-.8-.08,0-.17.01-.25.04l-4.48,1.49c-.1.03-.21.05-.32.05-.2,0-.39-.06-.55-.17l-4.98-3.32c-.25-.17-.54-.25-.83-.25h0ZM13.79,18.88s-.08-.01-.11-.03l-3.45-2.3c-.14-.09-.22-.25-.22-.42V5.29c0-.12.1-.2.2-.2.04,0,.08.01.11.03l3.45,2.3c.14.09.22.25.22.42v10.84c0,.12-.1.2-.2.2h0Z"/>
    </g>
  </g>
</svg>