<?xml version="1.0" encoding="UTF-8"?>
<svg id="Layer_10" data-name="Layer 10" xmlns="http://www.w3.org/2000/svg" xmlns:xlink="http://www.w3.org/1999/xlink" viewBox="0 0 24 24">
  <defs>
    <style>
      .cls-1 {
        fill: #fff;
      }

      .cls-2 {
        opacity: .4;
      }

      .cls-3 {
        fill: url(#linear-gradient);
      }
    </style>
    <linearGradient id="linear-gradient" x1="5.44" y1="5.44" x2="19.59" y2="19.59" gradientUnits="userSpaceOnUse">
      <stop offset="0" stop-color="#e0e2fb"/>
      <stop offset=".25" stop-color="#a8bfe2"/>
      <stop offset=".5" stop-color="#c6f7cf"/>
      <stop offset=".75" stop-color="#abefea"/>
      <stop offset="1" stop-color="#f0f8f7"/>
    </linearGradient>
  </defs>
  <g id="Grown">
    <path class="cls-3" d="M7.6,2.25c-.33-.33-.86-.33-1.19,0L2.15,6.5c-.32.32-.09.86.36.86h2.49v9.14c0,.83.67,1.5,1.5,1.5h1c.83,0,1.5-.67,1.5-1.5V7.36h2.49c.45,0,.68-.54.36-.86L7.6,2.25ZM21.49,16.64h-2.49V7.5c0-.83-.67-1.5-1.5-1.5h-1c-.83,0-1.5.67-1.5,1.5v9.14h-2.49c-.45,0-.68.54-.36.86l4.26,4.26c.33.33.86.33,1.19,0l4.26-4.26c.32-.32.09-.86-.36-.86Z"/>
    <g class="cls-2">
      <path class="cls-1" d="M7,2.15c.18,0,.36.07.49.2l4.26,4.26c.12.12.12.28.08.39-.04.11-.15.22-.33.22h-2.64v9.29c0,.74-.61,1.35-1.35,1.35h-1c-.74,0-1.35-.61-1.35-1.35V7.21h-2.64c-.18,0-.28-.11-.33-.22-.04-.11-.05-.26.08-.39L6.51,2.35c.13-.13.3-.2.49-.2M17.5,6.15c.74,0,1.35.61,1.35,1.35v9.29h2.64c.18,0,.28.11.33.22.04.11.05.26-.08.39l-4.26,4.26c-.13.13-.3.2-.49.2s-.36-.07-.49-.2l-4.26-4.26c-.12-.12-.12-.28-.08-.39.04-.11.15-.22.33-.22h2.64V7.5c0-.74.61-1.35,1.35-1.35h1M7,2c-.22,0-.43.08-.6.25L2.15,6.5c-.32.32-.09.86.36.86h2.49v9.14c0,.83.67,1.5,1.5,1.5h1c.83,0,1.5-.67,1.5-1.5V7.36h2.49c.45,0,.68-.54.36-.86L7.6,2.25c-.16-.16-.38-.25-.6-.25h0ZM17.5,6h-1c-.83,0-1.5.67-1.5,1.5v9.14h-2.49c-.45,0-.68.54-.36.86l4.26,4.26c.16.16.38.25.6.25s.43-.08.6-.25l4.26-4.26c.32-.32.09-.86-.36-.86h-2.49V7.5c0-.83-.67-1.5-1.5-1.5h0Z"/>
    </g>
  </g>
</svg>