<?xml version="1.0" encoding="UTF-8"?>
<svg id="Layer_10" data-name="Layer 10" xmlns="http://www.w3.org/2000/svg" xmlns:xlink="http://www.w3.org/1999/xlink" viewBox="0 0 24 24">
  <defs>
    <style>
      .cls-1 {
        fill: #fff;
      }

      .cls-2 {
        opacity: .4;
      }

      .cls-3 {
        fill: url(#linear-gradient);
      }
    </style>
    <linearGradient id="linear-gradient" x1="3.08" y1="3.24" x2="19.03" y2="19.19" gradientUnits="userSpaceOnUse">
      <stop offset="0" stop-color="#e0e2fb"/>
      <stop offset=".25" stop-color="#a8bfe2"/>
      <stop offset=".5" stop-color="#c6f7cf"/>
      <stop offset=".75" stop-color="#abefea"/>
      <stop offset="1" stop-color="#f0f8f7"/>
    </linearGradient>
  </defs>
  <g id="FAQ_1">
    <path class="cls-3" d="M20,2H4c-1.1,0-2,.9-2,2v16.53c0,1.31,1.6,1.96,2.51,1.02l2.48-2.55h13c1.1,0,2-.9,2-2V4c0-1.1-.9-2-2-2ZM12,17c-.69,0-1.25-.56-1.25-1.25s.56-1.25,1.25-1.25,1.25.56,1.25,1.25-.56,1.25-1.25,1.25ZM13.72,10.48c-.43.14-.72.55-.72,1v.52c0,.55-.45,1-1,1s-1-.45-1-1v-.52c0-1.32.84-2.48,2.09-2.9.54-.18.91-.69.91-1.26,0-.73-.59-1.32-1.32-1.32h-1.35c-.73,0-1.32.59-1.32,1.32v.68c0,.55-.45,1-1,1s-1-.45-1-1v-.68c0-1.83,1.49-3.32,3.32-3.32h1.35c1.83,0,3.32,1.49,3.32,3.32,0,1.43-.91,2.7-2.28,3.15Z"/>
    <g class="cls-2">
      <path class="cls-1" d="M20,2.2c.99,0,1.8.81,1.8,1.8v13c0,.99-.81,1.8-1.8,1.8H6.91l-.06.06-2.48,2.55c-.31.32-.66.39-.9.39-.63,0-1.28-.47-1.28-1.27V4c0-.99.81-1.8,1.8-1.8h16M9,9.2c.66,0,1.2-.54,1.2-1.2v-.68c0-.62.5-1.12,1.12-1.12h1.35c.62,0,1.12.5,1.12,1.12,0,.48-.31.91-.77,1.07-1.33.44-2.23,1.69-2.23,3.09v.52c0,.66.54,1.2,1.2,1.2s1.2-.54,1.2-1.2v-.52c0-.37.24-.7.59-.81,1.44-.48,2.41-1.82,2.41-3.34,0-1.94-1.58-3.52-3.52-3.52h-1.35c-1.94,0-3.52,1.58-3.52,3.52v.68c0,.66.54,1.2,1.2,1.2M12,17.2c.8,0,1.45-.65,1.45-1.45s-.65-1.45-1.45-1.45-1.45.65-1.45,1.45.65,1.45,1.45,1.45M20,2H4c-1.1,0-2,.9-2,2v16.53c0,.88.72,1.47,1.48,1.47.37,0,.74-.14,1.04-.45l2.48-2.55h13c1.1,0,2-.9,2-2V4c0-1.1-.9-2-2-2h0ZM9,9c-.55,0-1-.45-1-1v-.68c0-1.83,1.49-3.32,3.32-3.32h1.35c1.83,0,3.32,1.49,3.32,3.32,0,1.43-.91,2.7-2.28,3.15-.43.14-.72.55-.72,1v.52c0,.55-.45,1-1,1s-1-.45-1-1v-.52c0-1.32.84-2.48,2.09-2.9.54-.18.91-.69.91-1.26,0-.73-.59-1.32-1.32-1.32h-1.35c-.73,0-1.32.59-1.32,1.32v.68c0,.55-.45,1-1,1h0ZM12,17c-.69,0-1.25-.56-1.25-1.25s.56-1.25,1.25-1.25,1.25.56,1.25,1.25-.56,1.25-1.25,1.25h0Z"/>
    </g>
  </g>
</svg>