<?xml version="1.0" encoding="UTF-8"?>
<svg id="Layer_10" data-name="Layer 10" xmlns="http://www.w3.org/2000/svg" xmlns:xlink="http://www.w3.org/1999/xlink" viewBox="0 0 24 24">
  <defs>
    <style>
      .cls-1 {
        fill: #fff;
      }

      .cls-2 {
        fill: url(#linear-gradient);
      }

      .cls-3 {
        opacity: .5;
      }
    </style>
    <linearGradient id="linear-gradient" x1="6.7" y1="7.52" x2="18.02" y2="18.83" gradientUnits="userSpaceOnUse">
      <stop offset="0" stop-color="#e0e2fb"/>
      <stop offset=".25" stop-color="#a8bfe2"/>
      <stop offset=".5" stop-color="#c6f7cf"/>
      <stop offset=".75" stop-color="#abefea"/>
      <stop offset="1" stop-color="#f0f8f7"/>
    </linearGradient>
  </defs>
  <g id="Moneybag">
    <path class="cls-2" d="M9.37,4.71c.1.16.17.34.21.48.06.18.23.31.43.31h3.98c.2,0,.38-.12.43-.31.05-.14.12-.32.21-.48.12-.19.83-.99,1.45-1.67.38-.41.06-1.05-.52-1.05h-7.14c-.58,0-.89.63-.52,1.05.62.68,1.34,1.48,1.45,1.67ZM10.99,13.14c0,.11.02.2.07.29.05.08.17.16.35.22v-.98c-.15.05-.26.12-.32.21-.07.09-.1.18-.1.27ZM14.5,7.02c0,.27-.23.48-.5.48h-4c-.27,0-.49-.22-.5-.48-4.67.18-5.5,7.39-5.5,9.28s.4,5.7,4.31,5.7h7.38c3.91,0,4.31-3.78,4.31-5.7s-.83-9.1-5.5-9.28ZM14.5,15.75c0,.55-.17,1.01-.5,1.35-.33.35-.8.56-1.4.63v.77h-1.19v-.81c-.67-.12-1.15-.38-1.45-.78-.3-.41-.45-.86-.45-1.37v-.25h1.41v.17c0,.18.04.35.11.49.07.15.2.26.38.34v-1.34c-.57-.1-1.02-.29-1.34-.56-.33-.27-.49-.67-.49-1.19v-.07c0-.37.08-.69.25-.94.17-.26.39-.46.67-.61s.58-.25.91-.3v-.78h1.19v.82c.56.11.99.34,1.3.69.31.35.46.77.46,1.25v.17h-1.41v-.17c0-.1-.03-.2-.08-.29-.05-.09-.14-.18-.27-.24v1.12c1.27.17,1.91.78,1.91,1.83v.07ZM12.59,15.18v1.18c.19-.06.32-.14.39-.25.07-.11.11-.22.11-.33,0-.12-.03-.24-.09-.34-.06-.1-.19-.19-.41-.25Z"/>
    <g class="cls-3">
      <path class="cls-1" d="M15.57,2.15c.26,0,.43.16.49.3.07.17.04.35-.08.49-.88.96-1.37,1.53-1.47,1.69-.09.15-.17.32-.23.51-.04.12-.16.2-.29.2h-3.98c-.14,0-.25-.08-.29-.2-.06-.19-.14-.37-.23-.51-.1-.17-.59-.73-1.47-1.69-.13-.14-.16-.32-.08-.49.06-.15.23-.3.49-.3h7.14M14.62,7.17c4.26.3,5.23,6.83,5.23,9.13,0,2.53-.72,5.55-4.16,5.55h-7.38c-3.44,0-4.16-3.02-4.16-5.55,0-2.29.96-8.83,5.23-9.13.08.28.33.48.62.48h4c.3,0,.55-.2.62-.48M11.26,11.16c-.3.06-.58.16-.83.29-.3.16-.54.38-.72.66-.18.28-.28.63-.28,1.03v.07c0,.57.18,1.01.54,1.31.32.27.75.46,1.29.57v.94s-.08-.09-.1-.13c-.06-.12-.09-.26-.09-.42v-.32h-1.71v.4c0,.54.16,1.03.48,1.46.3.41.78.68,1.42.82v.83h1.49v-.79c.57-.09,1.03-.31,1.36-.66.36-.37.54-.87.54-1.46v-.07c0-1.09-.64-1.75-1.91-1.96v-.65c.03.06.05.13.05.19v.32h1.71v-.32c0-.51-.17-.97-.5-1.35-.3-.35-.73-.59-1.26-.71v-.85h-1.49v.81M11.26,12.91v.5s-.06-.05-.07-.06c-.04-.06-.05-.13-.05-.21,0-.06.02-.12.07-.18.01-.02.03-.04.05-.05M12.74,15.4c.08.04.11.08.13.11.05.08.07.17.07.27,0,.08-.03.16-.08.25-.02.04-.06.08-.11.11v-.73M15.57,2h-7.14c-.58,0-.89.63-.52,1.05.62.68,1.34,1.48,1.45,1.67.1.16.17.34.21.48.06.18.23.31.43.31h3.98c.2,0,.38-.12.43-.31.05-.14.12-.32.21-.48.12-.19.83-.99,1.45-1.67.38-.41.06-1.05-.52-1.05h0ZM14.5,7.02c0,.27-.23.48-.5.48h-4c-.27,0-.49-.22-.5-.48-4.67.18-5.5,7.39-5.5,9.28s.4,5.7,4.31,5.7h7.38c3.91,0,4.31-3.78,4.31-5.7s-.83-9.1-5.5-9.28h0ZM11.41,16.31v-1.34c-.57-.1-1.02-.29-1.34-.56-.33-.27-.49-.67-.49-1.19v-.07c0-.37.08-.69.25-.94.17-.26.39-.46.67-.61s.58-.25.91-.3v-.78h1.19v.82c.56.11.99.34,1.3.69.31.35.46.77.46,1.25v.17h-1.41v-.17c0-.1-.03-.2-.08-.29-.05-.09-.14-.18-.27-.24v1.12c1.27.17,1.91.78,1.91,1.83v.07c0,.55-.17,1.01-.5,1.35-.33.35-.8.56-1.4.63v.77h-1.19v-.81c-.67-.12-1.15-.38-1.45-.78-.3-.41-.45-.86-.45-1.37v-.25h1.41v.17c0,.18.04.35.11.49.07.15.2.26.38.34h0ZM11.41,12.67c-.15.05-.26.12-.32.21-.07.09-.1.18-.1.27,0,.11.02.2.07.29.05.08.17.16.35.22v-.98h0ZM12.59,15.18v1.18c.19-.06.32-.14.39-.25.07-.11.11-.22.11-.33,0-.12-.03-.24-.09-.34-.06-.1-.19-.19-.41-.25h0Z"/>
    </g>
  </g>
</svg>