<?xml version="1.0" encoding="UTF-8"?>
<svg id="Layer_10" data-name="Layer 10" xmlns="http://www.w3.org/2000/svg" xmlns:xlink="http://www.w3.org/1999/xlink" viewBox="0 0 24 24">
  <defs>
    <style>
      .cls-1 {
        fill: #fff;
      }

      .cls-2 {
        fill: url(#linear-gradient);
      }

      .cls-3 {
        opacity: .5;
      }
    </style>
    <linearGradient id="linear-gradient" x1="6.7" y1="7.52" x2="18.02" y2="18.83" gradientUnits="userSpaceOnUse">
      <stop offset="0" stop-color="#e0e2fb"/>
      <stop offset=".25" stop-color="#a8bfe2"/>
      <stop offset=".5" stop-color="#c6f7cf"/>
      <stop offset=".75" stop-color="#abefea"/>
      <stop offset="1" stop-color="#f0f8f7"/>
    </linearGradient>
  </defs>
  <g id="Moneybag">
    <path class="cls-2" d="M9.37,4.71c.1.16.17.34.21.48.06.18.23.31.43.31h3.98c.2,0,.38-.12.43-.31.05-.14.12-.32.21-.48.12-.19.83-.99,1.45-1.67.38-.41.06-1.05-.52-1.05h-7.14c-.58,0-.89.63-.52,1.05.62.68,1.34,1.48,1.45,1.67ZM10.99,13.14c0,.11.02.2.07.29.05.08.17.16.35.22v-.98c-.15.05-.26.12-.32.21-.07.09-.1.18-.1.27ZM14.5,7.02c0,.27-.23.48-.5.48h-4c-.27,0-.49-.22-.5-.48-4.67.18-5.5,7.39-5.5,9.28s.4,5.7,4.31,5.7h7.38c3.91,0,4.31-3.78,4.31-5.7s-.83-9.1-5.5-9.28ZM14.5,15.75c0,.55-.17,1.01-.5,1.35-.33.35-.8.56-1.4.63v.77h-1.19v-.81c-.67-.12-1.15-.38-1.45-.78-.3-.41-.45-.86-.45-1.37v-.25h1.41v.17c0,.18.04.35.11.49.07.15.2.26.38.34v-1.34c-.57-.1-1.02-.29-1.34-.56-.33-.27-.49-.67-.49-1.19v-.07c0-.37.08-.69.25-.94.17-.26.39-.46.67-.61s.58-.25.91-.3v-.78h1.19v.82c.56.11.99.34,1.3.69.31.35.46.77.46,1.25v.17h-1.41v-.17c0-.1-.03-.2-.08-.29-.05-.09-.14-.18-.27-.24v1.12c1.27.17,1.91.78,1.91,1.83v.07ZM12.59,15.18v1.18c.19-.06.32-.14.39-.25.07-.11.11-.22.11-.33,0-.12-.03-.24-.09-.34-.06-.1-.19-.19-.41-.25Z"/>
    <g class="cls-3">
      <path class="cls-1" d="M15.57,2.2c.24,0,.39.14.44.27.07.15.04.31-.08.44-1.32,1.45-1.44,1.64-1.48,1.7-.09.15-.17.33-.23.52-.03.1-.13.17-.24.17h-3.98c-.11,0-.21-.07-.24-.17-.06-.2-.14-.37-.23-.52-.04-.06-.15-.25-1.48-1.7-.12-.13-.14-.29-.08-.44.06-.13.21-.27.44-.27h7.14M14.66,7.23c4.19.33,5.14,6.8,5.14,9.07,0,2.51-.71,5.5-4.11,5.5h-7.38c-3.4,0-4.11-2.99-4.11-5.5,0-2.27.95-8.74,5.14-9.07.09.28.35.47.66.47h4c.31,0,.57-.2.66-.47M11.21,11.12c-.29.06-.56.16-.8.29-.3.16-.55.39-.74.67-.19.29-.29.64-.29,1.05v.07c0,.58.19,1.03.56,1.35.29.24.68.43,1.14.54h-1.78v.45c0,.55.17,1.05.49,1.49.31.41.78.69,1.42.83v.84h1.59v-.8c.56-.1,1.02-.32,1.35-.67.37-.38.56-.89.56-1.49v-.07c0-.77-.34-1.72-1.91-2v-.04h1.76v-.37c0-.53-.17-.99-.51-1.38-.3-.35-.72-.59-1.25-.72v-.86h-1.59v.82M11.21,13.06v.22s-.02-.08-.02-.13c0-.03,0-.06.02-.09M11.11,15.11s.06.01.09.02v.75s0,0,0-.01c-.06-.12-.09-.25-.09-.4v-.37M12.79,15.49s.03.03.03.04c.04.07.06.15.06.24,0,.07-.03.14-.08.22,0,0-.01.02-.02.03v-.53M15.57,2h-7.14c-.58,0-.89.63-.52,1.05.62.68,1.34,1.48,1.45,1.67.1.16.17.34.21.48.06.18.23.31.43.31h3.98c.2,0,.38-.12.43-.31.05-.14.12-.32.21-.48.12-.19.83-.99,1.45-1.67.38-.41.06-1.05-.52-1.05h0ZM14.5,7.02c0,.27-.23.48-.5.48h-4c-.27,0-.49-.22-.5-.48-4.67.18-5.5,7.39-5.5,9.28s.4,5.7,4.31,5.7h7.38c3.91,0,4.31-3.78,4.31-5.7s-.83-9.1-5.5-9.28h0ZM11.41,16.31v-1.34c-.57-.1-1.02-.29-1.34-.56-.33-.27-.49-.67-.49-1.19v-.07c0-.37.08-.69.25-.94.17-.26.39-.46.67-.61s.58-.25.91-.3v-.78h1.19v.82c.56.11.99.34,1.3.69.31.35.46.77.46,1.25v.17h-1.41v-.17c0-.1-.03-.2-.08-.29-.05-.09-.14-.18-.27-.24v1.12c1.27.17,1.91.78,1.91,1.83v.07c0,.55-.17,1.01-.5,1.35-.33.35-.8.56-1.4.63v.77h-1.19v-.81c-.67-.12-1.15-.38-1.45-.78-.3-.41-.45-.86-.45-1.37v-.25h1.41v.17c0,.18.04.35.11.49.07.15.2.26.38.34h0ZM11.41,12.67c-.15.05-.26.12-.32.21-.07.09-.1.18-.1.27,0,.11.02.2.07.29.05.08.17.16.35.22v-.98h0ZM12.59,15.18v1.18c.19-.06.32-.14.39-.25.07-.11.11-.22.11-.33,0-.12-.03-.24-.09-.34-.06-.1-.19-.19-.41-.25h0Z"/>
    </g>
  </g>
</svg>