<?xml version="1.0" encoding="UTF-8"?>
<svg id="Layer_10" data-name="Layer 10" xmlns="http://www.w3.org/2000/svg" xmlns:xlink="http://www.w3.org/1999/xlink" viewBox="0 0 24 24">
  <defs>
    <style>
      .cls-1 {
        fill: #fff;
      }

      .cls-2 {
        fill: url(#linear-gradient);
      }

      .cls-3 {
        opacity: .5;
      }
    </style>
    <linearGradient id="linear-gradient" x1="2" y1="11.98" x2="22.96" y2="11.98" gradientUnits="userSpaceOnUse">
      <stop offset="0" stop-color="#e0e2fb"/>
      <stop offset=".25" stop-color="#a8bfe2"/>
      <stop offset=".5" stop-color="#c6f7cf"/>
      <stop offset=".75" stop-color="#abefea"/>
      <stop offset="1" stop-color="#f0f8f7"/>
    </linearGradient>
  </defs>
  <g id="Link">
    <path class="cls-2" d="M20.22,3.78c-2.37-2.37-6.21-2.37-8.58,0l-2.15,2.15c-.29.29-.56.61-.78.95,1.09-.24,2.24-.21,3.32.08.17.05.36,0,.48-.12l1.09-1.09c1.44-1.44,3.9-1.26,5.09.54.86,1.31.6,3.07-.51,4.18l-2.07,2.07c-.72.72-1.69,1.03-2.62.95-.37-.03-.74-.14-1.08-.29-.34-.16-.67-.38-.94-.66-.28-.28-.5-.6-.66-.94-.77-.21-1.61,0-2.2.59l-.4.4c.29.69.73,1.36,1.29,1.92.56.56,1.23,1,1.92,1.29.35.15.72.26,1.09.34,1.12.25,2.3.17,3.39-.24.42-.15.83-.36,1.22-.6h0c.34-.23.66-.49.95-.79l2.15-2.15c2.37-2.37,2.37-6.21,0-8.58ZM11.96,17.05c-.17-.05-.36,0-.48.12l-1.09,1.09c-1.44,1.44-3.9,1.26-5.09-.54-.86-1.31-.6-3.07.51-4.18l2.07-2.07c.72-.72,1.69-1.03,2.62-.95.37.03.74.14,1.08.29s.67.38.94.66c.28.28.5.6.66.94.77.21,1.61,0,2.2-.59l.4-.4c-.29-.69-.73-1.36-1.29-1.92-.56-.56-1.23-1-1.92-1.29-.35-.15-.72-.27-1.09-.34-1.12-.25-2.3-.16-3.38.24-.42.15-.84.36-1.23.61h0c-.34.23-.66.49-.95.79l-2.15,2.15c-2.55,2.55-2.35,6.82.6,9.11,2.44,1.89,5.95,1.51,8.13-.67l2-2c.29-.29.56-.61.78-.95-1.09.24-2.24.21-3.32-.08Z"/>
    <g class="cls-3">
      <path class="cls-1" d="M15.93,2.2c1.57,0,3.04.61,4.15,1.72,2.29,2.29,2.29,6.01,0,8.3l-2.15,2.15c-.29.29-.6.54-.92.76-.4.25-.79.44-1.18.58-.65.25-1.33.37-2.03.37-.42,0-.84-.05-1.25-.14-.36-.07-.71-.18-1.05-.32-.69-.29-1.33-.72-1.86-1.25-.5-.5-.91-1.09-1.2-1.74l.3-.3c.39-.39.91-.61,1.46-.61.15,0,.31.02.46.05.17.34.39.64.66.91.29.29.63.53,1,.7.39.18.77.28,1.15.31.1,0,.2.01.3.01.94,0,1.83-.36,2.48-1.02l2.07-2.07c1.21-1.21,1.43-3.07.54-4.43-.66-1-1.75-1.59-2.93-1.59-.93,0-1.81.36-2.47,1.02l-1.09,1.09c-.05.05-.13.08-.2.08-.03,0-.06,0-.09-.01-.61-.17-1.24-.25-1.87-.25-.35,0-.7.03-1.05.08.14-.18.3-.36.47-.52l2.15-2.15c1.11-1.11,2.58-1.72,4.15-1.72M10.21,7.92c.42,0,.83.05,1.25.14.33.06.68.17,1.05.33.69.29,1.33.72,1.86,1.25.5.5.91,1.09,1.2,1.74l-.3.3c-.39.39-.91.61-1.46.61-.15,0-.31-.02-.46-.05-.17-.34-.39-.64-.66-.91-.29-.29-.63-.53-1-.7-.39-.18-.77-.28-1.15-.31-.1,0-.2-.01-.3-.01-.94,0-1.83.36-2.48,1.02l-2.07,2.07c-1.21,1.21-1.43,3.07-.54,4.43.66,1,1.75,1.59,2.93,1.59.93,0,1.81-.36,2.47-1.02l1.09-1.09c.05-.05.13-.08.2-.08.03,0,.06,0,.09.01.61.17,1.24.25,1.87.25.35,0,.7-.03,1.04-.08-.14.18-.3.36-.47.52l-2,2c-1.16,1.16-2.76,1.83-4.39,1.83-1.28,0-2.49-.41-3.48-1.17-1.36-1.06-2.18-2.58-2.28-4.28-.11-1.68.51-3.33,1.7-4.52l2.15-2.15c.29-.29.6-.54.92-.76.41-.26.81-.46,1.19-.6.66-.24,1.34-.36,2.03-.36h0M15.93,2c-1.55,0-3.1.59-4.29,1.78l-2.15,2.15c-.29.29-.56.61-.78.95.49-.11,1-.16,1.5-.16.61,0,1.23.08,1.82.24.05.01.09.02.14.02.13,0,.25-.05.34-.14l1.09-1.09c.64-.64,1.48-.96,2.32-.96,1.05,0,2.11.5,2.76,1.5.86,1.31.6,3.07-.51,4.18l-2.07,2.07c-.64.64-1.5.96-2.34.96-.09,0-.19,0-.28-.01-.37-.03-.74-.14-1.08-.29-.34-.16-.67-.38-.94-.66-.28-.28-.5-.6-.66-.94-.2-.05-.4-.08-.6-.08-.58,0-1.16.22-1.61.67l-.4.4c.29.69.73,1.36,1.29,1.92s1.23,1,1.92,1.29c.35.15.72.26,1.09.34.43.09.86.14,1.29.14.71,0,1.42-.13,2.1-.39.42-.15.83-.36,1.22-.6h0c.34-.23.66-.49.95-.79l2.15-2.15c2.37-2.37,2.37-6.21,0-8.58-1.18-1.18-2.74-1.78-4.29-1.78h0ZM10.21,7.72c-.71,0-1.42.13-2.1.38-.42.15-.84.36-1.23.61h0c-.34.23-.66.49-.95.79l-2.15,2.15c-2.55,2.55-2.35,6.82.6,9.11,1.06.82,2.33,1.21,3.6,1.21,1.65,0,3.3-.66,4.53-1.89l2-2c.29-.29.56-.62.78-.95-.49.11-1,.16-1.5.16-.61,0-1.23-.08-1.82-.24-.05-.01-.09-.02-.14-.02-.13,0-.25.05-.34.14l-1.09,1.09c-.64.64-1.48.96-2.32.96-1.05,0-2.11-.5-2.76-1.5-.86-1.31-.6-3.07.51-4.18l2.07-2.07c.64-.64,1.5-.96,2.34-.96.09,0,.19,0,.28.01.37.03.74.14,1.08.29s.67.38.94.66c.28.28.5.6.66.94.2.05.4.08.6.08.58,0,1.16-.22,1.61-.67l.4-.4c-.29-.69-.73-1.36-1.29-1.92-.56-.56-1.23-1-1.92-1.29-.35-.15-.72-.27-1.09-.34-.42-.09-.85-.14-1.28-.14h0Z"/>
    </g>
  </g>
</svg>