<?xml version="1.0" encoding="UTF-8"?>
<svg id="Layer_10" data-name="Layer 10" xmlns="http://www.w3.org/2000/svg" xmlns:xlink="http://www.w3.org/1999/xlink" viewBox="0 0 24 24">
  <defs>
    <style>
      .cls-1 {
        fill: #fff;
      }

      .cls-2 {
        fill: url(#linear-gradient);
      }

      .cls-3 {
        opacity: .5;
      }
    </style>
    <linearGradient id="linear-gradient" x1="2.88" y1="2.88" x2="19.69" y2="19.69" gradientUnits="userSpaceOnUse">
      <stop offset="0" stop-color="#e0e2fb"/>
      <stop offset=".25" stop-color="#a8bfe2"/>
      <stop offset=".5" stop-color="#c6f7cf"/>
      <stop offset=".75" stop-color="#abefea"/>
      <stop offset="1" stop-color="#f0f8f7"/>
    </linearGradient>
  </defs>
  <g id="Note">
    <path class="cls-2" d="M19,2H5c-1.66,0-3,1.34-3,3v14c0,1.66,1.34,3,3,3h14c1.66,0,3-1.34,3-3V5c0-1.66-1.34-3-3-3ZM6.57,6.29h2.29c.63,0,1.14.51,1.14,1.14s-.51,1.14-1.14,1.14h-2.29c-.63,0-1.14-.51-1.14-1.14s.51-1.14,1.14-1.14ZM11.14,16.57c0,.63-.51,1.14-1.14,1.14h-3.43c-.63,0-1.14-.51-1.14-1.14h0c0-.63.51-1.14,1.14-1.14h3.43c.63,0,1.14.51,1.14,1.14h0ZM14.57,13.14H6.57c-.63,0-1.14-.51-1.14-1.14s.51-1.14,1.14-1.14h8c.63,0,1.14.51,1.14,1.14s-.51,1.14-1.14,1.14Z"/>
    <g class="cls-3">
      <path class="cls-1" d="M19,2.15c1.57,0,2.85,1.28,2.85,2.85v14c0,1.57-1.28,2.85-2.85,2.85H5c-1.57,0-2.85-1.28-2.85-2.85V5c0-1.57,1.28-2.85,2.85-2.85h14M6.57,8.72h2.29c.71,0,1.29-.58,1.29-1.29s-.58-1.29-1.29-1.29h-2.29c-.71,0-1.29.58-1.29,1.29s.58,1.29,1.29,1.29M6.57,13.29h8c.71,0,1.29-.58,1.29-1.29s-.58-1.29-1.29-1.29H6.57c-.71,0-1.29.58-1.29,1.29s.58,1.29,1.29,1.29M6.57,17.86h3.43c.71,0,1.29-.58,1.29-1.29s-.58-1.29-1.29-1.29h-3.43c-.71,0-1.29.58-1.29,1.29s.58,1.29,1.29,1.29M19,2H5c-1.66,0-3,1.34-3,3v14c0,1.66,1.34,3,3,3h14c1.66,0,3-1.34,3-3V5c0-1.66-1.34-3-3-3h0ZM6.57,8.57c-.63,0-1.14-.51-1.14-1.14s.51-1.14,1.14-1.14h2.29c.63,0,1.14.51,1.14,1.14s-.51,1.14-1.14,1.14h-2.29ZM6.57,13.14c-.63,0-1.14-.51-1.14-1.14s.51-1.14,1.14-1.14h8c.63,0,1.14.51,1.14,1.14s-.51,1.14-1.14,1.14H6.57ZM6.57,17.71c-.63,0-1.14-.51-1.14-1.14s.51-1.14,1.14-1.14h3.43c.63,0,1.14.51,1.14,1.14s-.51,1.14-1.14,1.14h-3.43Z"/>
    </g>
  </g>
</svg>