<?xml version="1.0" encoding="UTF-8"?>
<svg id="Layer_10" data-name="Layer 10" xmlns="http://www.w3.org/2000/svg" xmlns:xlink="http://www.w3.org/1999/xlink" viewBox="0 0 24 24">
  <defs>
    <style>
      .cls-1 {
        fill: #fff;
      }

      .cls-2 {
        opacity: .4;
      }

      .cls-3 {
        fill: url(#linear-gradient);
      }
    </style>
    <linearGradient id="linear-gradient" x1="7.4" y1="7.4" x2="16.07" y2="16.07" gradientUnits="userSpaceOnUse">
      <stop offset="0" stop-color="#e0e2fb"/>
      <stop offset=".25" stop-color="#a8bfe2"/>
      <stop offset=".5" stop-color="#c6f7cf"/>
      <stop offset=".75" stop-color="#abefea"/>
      <stop offset="1" stop-color="#f0f8f7"/>
    </linearGradient>
  </defs>
  <g id="Plus">
    <path class="cls-3" d="M19.92,8.85h-4.05c-.4,0-.72-.32-.72-.72v-4.05c0-.6-.48-1.08-1.08-1.08h-4.14c-.6,0-1.08.48-1.08,1.08v4.05c0,.4-.32.72-.72.72h-4.05c-.6,0-1.08.48-1.08,1.08v4.14c0,.6.48,1.08,1.08,1.08h4.05c.4,0,.72.32.72.72v4.05c0,.6.48,1.08,1.08,1.08h4.14c.6,0,1.08-.48,1.08-1.08v-4.05c0-.4.32-.72.72-.72h4.05c.6,0,1.08-.48,1.08-1.08v-4.14c0-.6-.48-1.08-1.08-1.08Z"/>
    <g class="cls-2">
      <path class="cls-1" d="M14.07,3.2c.49,0,.88.39.88.88v4.05c0,.51.41.92.92.92h4.05c.49,0,.88.39.88.88v4.14c0,.49-.39.88-.88.88h-4.05c-.51,0-.92.41-.92.92v4.05c0,.49-.39.88-.88.88h-4.14c-.49,0-.88-.39-.88-.88v-4.05c0-.51-.41-.92-.92-.92h-4.05c-.49,0-.88-.39-.88-.88v-4.14c0-.49.39-.88.88-.88h4.05c.51,0,.92-.41.92-.92v-4.05c0-.49.39-.88.88-.88h4.14M14.07,3h-4.14c-.6,0-1.08.48-1.08,1.08v4.05c0,.4-.32.72-.72.72h-4.05c-.6,0-1.08.48-1.08,1.08v4.14c0,.6.48,1.08,1.08,1.08h4.05c.4,0,.72.32.72.72v4.05c0,.6.48,1.08,1.08,1.08h4.14c.6,0,1.08-.48,1.08-1.08v-4.05c0-.4.32-.72.72-.72h4.05c.6,0,1.08-.48,1.08-1.08v-4.14c0-.6-.48-1.08-1.08-1.08h-4.05c-.4,0-.72-.32-.72-.72v-4.05c0-.6-.48-1.08-1.08-1.08h0Z"/>
    </g>
  </g>
</svg>