<?xml version="1.0" encoding="UTF-8"?>
<svg id="Layer_10" data-name="Layer 10" xmlns="http://www.w3.org/2000/svg" xmlns:xlink="http://www.w3.org/1999/xlink" viewBox="0 0 24 24">
  <defs>
    <style>
      .cls-1 {
        opacity: .4;
      }

      .cls-2 {
        fill: #f0f8f7;
      }

      .cls-3 {
        fill: url(#linear-gradient);
      }
    </style>
    <linearGradient id="linear-gradient" x1="4.76" y1="5.5" x2="16.08" y2="16.81" gradientUnits="userSpaceOnUse">
      <stop offset="0" stop-color="#e0e2fb"/>
      <stop offset=".25" stop-color="#a8bfe2"/>
      <stop offset=".5" stop-color="#c6f7cf"/>
      <stop offset=".75" stop-color="#abefea"/>
      <stop offset="1" stop-color="#f0f8f7"/>
    </linearGradient>
  </defs>
  <g id="Save">
    <path class="cls-3" d="M16,2h-8c-2.21,0-4,1.79-4,4v14.5c0,1.12,1.17,1.84,2.17,1.34l4.49-2.24c.84-.42,1.84-.42,2.68,0l4.49,2.24c1,.5,2.17-.23,2.17-1.34V6c0-2.21-1.79-4-4-4ZM16.25,9.47H7.75c-.41,0-.75-.34-.75-.75s.34-.75.75-.75h8.5c.41,0,.75.34.75.75s-.34.75-.75.75Z"/>
    <g class="cls-1">
      <path class="cls-2" d="M16,2.15c2.12,0,3.85,1.73,3.85,3.85v14.5c0,.75-.61,1.35-1.35,1.35-.21,0-.41-.05-.6-.14l-4.49-2.24c-.44-.22-.92-.33-1.41-.33s-.97.11-1.41.33l-4.49,2.24c-.19.1-.39.14-.6.14-.74,0-1.35-.61-1.35-1.35V6c0-2.12,1.73-3.85,3.85-3.85h8M7.75,9.62h8.5c.5,0,.9-.4.9-.9s-.4-.9-.9-.9H7.75c-.5,0-.9.4-.9.9s.4.9.9.9M16,2h-8c-2.21,0-4,1.79-4,4v14.5c0,.87.71,1.5,1.5,1.5.22,0,.45-.05.67-.16l4.49-2.24c.42-.21.88-.32,1.34-.32s.92.11,1.34.32l4.49,2.24c.22.11.45.16.67.16.79,0,1.5-.63,1.5-1.5V6c0-2.21-1.79-4-4-4h0ZM7.75,9.47c-.41,0-.75-.34-.75-.75s.34-.75.75-.75h8.5c.41,0,.75.34.75.75s-.34.75-.75.75H7.75Z"/>
    </g>
  </g>
</svg>