<?xml version="1.0" encoding="UTF-8"?>
<svg id="Layer_10" data-name="Layer 10" xmlns="http://www.w3.org/2000/svg" xmlns:xlink="http://www.w3.org/1999/xlink" viewBox="0 0 24 24">
  <defs>
    <style>
      .cls-1 {
        fill: #fff;
      }

      .cls-2 {
        fill: url(#linear-gradient);
      }

      .cls-3 {
        opacity: .5;
      }
    </style>
    <linearGradient id="linear-gradient" x1="3.44" y1="3.44" x2="17.59" y2="17.59" gradientUnits="userSpaceOnUse">
      <stop offset="0" stop-color="#e0e2fb"/>
      <stop offset=".25" stop-color="#a8bfe2"/>
      <stop offset=".5" stop-color="#c6f7cf"/>
      <stop offset=".75" stop-color="#abefea"/>
      <stop offset="1" stop-color="#f0f8f7"/>
    </linearGradient>
  </defs>
  <g id="Image">
    <path class="cls-2" d="M19,2H5c-1.66,0-3,1.34-3,3v14c0,1.66,1.34,3,3,3h14c1.66,0,3-1.34,3-3V5c0-1.66-1.34-3-3-3ZM16.5,5.5c1.1,0,2,.9,2,2s-.9,2-2,2-2-.9-2-2,.9-2,2-2ZM19,19.5H5c-.28,0-.5-.22-.5-.5v-7.23l2.22-2.22c.78-.78,2.05-.78,2.83,0l9.8,9.8c-.09.09-.22.15-.35.15Z"/>
    <g class="cls-3">
      <path class="cls-1" d="M19,2.2c1.54,0,2.8,1.26,2.8,2.8v14c0,1.54-1.26,2.8-2.8,2.8H5c-1.54,0-2.8-1.26-2.8-2.8V5c0-1.54,1.26-2.8,2.8-2.8h14M16.5,9.7c1.21,0,2.2-.99,2.2-2.2s-.99-2.2-2.2-2.2-2.2.99-2.2,2.2.99,2.2,2.2,2.2M5,19.7h14c.19,0,.36-.07.49-.2l.14-.14-.14-.14-9.8-9.8c-.42-.42-.97-.64-1.56-.64s-1.14.23-1.56.64l-2.22,2.22-.06.06v7.31c0,.39.31.7.7.7M19,2H5c-1.66,0-3,1.34-3,3v14c0,1.66,1.34,3,3,3h14c1.66,0,3-1.34,3-3V5c0-1.66-1.34-3-3-3h0ZM16.5,9.5c-1.1,0-2-.9-2-2s.9-2,2-2,2,.9,2,2-.9,2-2,2h0ZM5,19.5c-.28,0-.5-.22-.5-.5v-7.23l2.22-2.22c.39-.39.9-.59,1.41-.59s1.02.2,1.41.59l9.8,9.8c-.09.09-.22.15-.35.15H5Z"/>
    </g>
  </g>
</svg>