<?xml version="1.0" encoding="UTF-8"?>
<svg id="Layer_10" data-name="Layer 10" xmlns="http://www.w3.org/2000/svg" xmlns:xlink="http://www.w3.org/1999/xlink" viewBox="0 0 24 24">
  <defs>
    <style>
      .cls-1 {
        fill: #fff;
      }

      .cls-2 {
        opacity: .4;
      }

      .cls-3 {
        fill: url(#linear-gradient);
      }
    </style>
    <linearGradient id="linear-gradient" x1="2" y1="12" x2="22" y2="12" gradientUnits="userSpaceOnUse">
      <stop offset="0" stop-color="#e0e2fb"/>
      <stop offset=".25" stop-color="#a8bfe2"/>
      <stop offset=".5" stop-color="#c6f7cf"/>
      <stop offset=".75" stop-color="#abefea"/>
      <stop offset="1" stop-color="#f0f8f7"/>
    </linearGradient>
  </defs>
  <g id="Comment">
    <path class="cls-3" d="M12,2C6.48,2,2,6.48,2,12v8c0,1.1.9,2,2,2h8c5.52,0,10-4.48,10-10S17.52,2,12,2ZM13,15h-6c-.55,0-1-.45-1-1s.45-1,1-1h6c.55,0,1,.45,1,1s-.45,1-1,1ZM17,11H7c-.55,0-1-.45-1-1s.45-1,1-1h10c.55,0,1,.45,1,1s-.45,1-1,1Z"/>
    <g class="cls-2">
      <path class="cls-1" d="M12,2.2c5.4,0,9.8,4.4,9.8,9.8s-4.4,9.8-9.8,9.8H4c-.99,0-1.8-.81-1.8-1.8v-8C2.2,6.6,6.6,2.2,12,2.2M7,11.2h10c.66,0,1.2-.54,1.2-1.2s-.54-1.2-1.2-1.2H7c-.66,0-1.2.54-1.2,1.2s.54,1.2,1.2,1.2M7,15.2h6c.66,0,1.2-.54,1.2-1.2s-.54-1.2-1.2-1.2h-6c-.66,0-1.2.54-1.2,1.2s.54,1.2,1.2,1.2M12,2C6.48,2,2,6.48,2,12v8c0,1.1.9,2,2,2h8c5.52,0,10-4.48,10-10S17.52,2,12,2h0ZM7,11c-.55,0-1-.45-1-1s.45-1,1-1h10c.55,0,1,.45,1,1s-.45,1-1,1H7ZM7,15c-.55,0-1-.45-1-1s.45-1,1-1h6c.55,0,1,.45,1,1s-.45,1-1,1h-6Z"/>
    </g>
  </g>
</svg>