<?xml version="1.0" encoding="UTF-8"?>
<svg id="Layer_10" data-name="Layer 10" xmlns="http://www.w3.org/2000/svg" xmlns:xlink="http://www.w3.org/1999/xlink" viewBox="0 0 24 24">
  <defs>
    <style>
      .cls-1 {
        fill: #fff;
      }

      .cls-2 {
        opacity: .4;
      }

      .cls-3 {
        fill: url(#linear-gradient);
      }
    </style>
    <linearGradient id="linear-gradient" x1="5.38" y1="8.06" x2="16.82" y2="19.49" gradientUnits="userSpaceOnUse">
      <stop offset="0" stop-color="#e0e2fb"/>
      <stop offset=".25" stop-color="#a8bfe2"/>
      <stop offset=".5" stop-color="#c6f7cf"/>
      <stop offset=".75" stop-color="#abefea"/>
      <stop offset="1" stop-color="#f0f8f7"/>
    </linearGradient>
  </defs>
  <g id="Upload">
    <path class="cls-3" d="M7.51,7.36h2.49v7.14c0,.83.67,1.5,1.5,1.5h1c.83,0,1.5-.67,1.5-1.5v-7.14h2.49c.45,0,.68-.54.36-.86l-4.26-4.26c-.33-.33-.86-.33-1.19,0l-4.26,4.26c-.32.32-.09.86.36.86ZM21.2,10.4h-2.4c-.44,0-.8.36-.8.8v4.8c0,1.1-.9,2-2,2h-8c-1.1,0-2-.9-2-2v-4.8c0-.44-.36-.8-.8-.8h-2.4c-.44,0-.8.36-.8.8v4.8c0,3.31,2.69,6,6,6h8c3.31,0,6-2.69,6-6v-4.8c0-.44-.36-.8-.8-.8Z"/>
    <g class="cls-2">
      <path class="cls-1" d="M12,2.2c.17,0,.33.07.45.19l4.26,4.26c.09.09.11.21.07.33-.05.12-.15.19-.28.19h-2.69v7.34c0,.72-.58,1.3-1.3,1.3h-1c-.72,0-1.3-.58-1.3-1.3v-7.34h-2.69c-.13,0-.23-.07-.28-.19-.05-.12-.02-.24.07-.33l4.26-4.26c.12-.12.28-.19.45-.19M21.2,10.6c.33,0,.6.27.6.6v4.8c0,3.2-2.6,5.8-5.8,5.8h-8c-3.2,0-5.8-2.6-5.8-5.8v-4.8c0-.33.27-.6.6-.6h2.4c.33,0,.6.27.6.6v4.8c0,1.21.99,2.2,2.2,2.2h8c1.21,0,2.2-.99,2.2-2.2v-4.8c0-.33.27-.6.6-.6h2.4M12,2c-.22,0-.43.08-.6.25l-4.26,4.26c-.32.32-.09.86.36.86h2.49v7.14c0,.83.67,1.5,1.5,1.5h1c.83,0,1.5-.67,1.5-1.5v-7.14h2.49c.45,0,.68-.54.36-.86l-4.26-4.26c-.16-.16-.38-.25-.6-.25h0ZM21.2,10.4h-2.4c-.44,0-.8.36-.8.8v4.8c0,1.1-.9,2-2,2h-8c-1.1,0-2-.9-2-2v-4.8c0-.44-.36-.8-.8-.8h-2.4c-.44,0-.8.36-.8.8v4.8c0,3.31,2.69,6,6,6h8c3.31,0,6-2.69,6-6v-4.8c0-.44-.36-.8-.8-.8h0Z"/>
    </g>
  </g>
</svg>