<?xml version="1.0" encoding="UTF-8"?>
<svg id="Layer_10" data-name="Layer 10" xmlns="http://www.w3.org/2000/svg" xmlns:xlink="http://www.w3.org/1999/xlink" viewBox="0 0 24 24">
  <defs>
    <style>
      .cls-1 {
        fill: url(#linear-gradient-2);
      }

      .cls-2 {
        fill: #fff;
      }

      .cls-3 {
        opacity: .4;
      }

      .cls-4 {
        fill: url(#linear-gradient);
      }
    </style>
    <linearGradient id="linear-gradient" x1="6" y1="5.99" x2="18" y2="5.99" gradientUnits="userSpaceOnUse">
      <stop offset="0" stop-color="#e0e2fb"/>
      <stop offset=".25" stop-color="#a8bfe2"/>
      <stop offset=".5" stop-color="#c6f7cf"/>
      <stop offset=".75" stop-color="#abefea"/>
      <stop offset="1" stop-color="#f0f8f7"/>
    </linearGradient>
    <linearGradient id="linear-gradient-2" x1="5.76" y1="9.75" x2="17.48" y2="21.46" xlink:href="#linear-gradient"/>
  </defs>
  <g id="Lock_1">
    <g>
      <path class="cls-4" d="M8,7.99c0-2.48,2.27-4.44,4.84-3.91,1.88.38,3.16,2.15,3.16,4.07v1.84s2,0,2,0v-1.77c0-3.07-2.2-5.81-5.25-6.18-3.65-.44-6.75,2.39-6.75,5.95v2h2v-2Z"/>
      <path class="cls-1" d="M20,9.98H4c-1.1,0-2,.9-2,2v8c0,1.1.9,2,2,2h16c1.1,0,2-.9,2-2v-8c0-1.1-.9-2-2-2ZM12,19.98c-2.21,0-4-1.79-4-4s1.79-4,4-4,4,1.79,4,4-1.79,4-4,4ZM11.26,14.75l.25.25.49.49.5-.49,1.22-1.22.5-.5c-.18-.15-.38-.28-.6-.39l-.53.53-1.09,1.09h0s-.25-.25-.25-.25l-1.37-1.37c-.21.11-.41.24-.6.39l.5.5.97.97ZM12,13.65c.32,0,.58-.26.58-.58s-.26-.58-.58-.58-.58.26-.58.58.26.58.58.58ZM11.01,16.97l.5-.49-.5-.5-.25-.25-.25-.25h0s.25-.25.25-.25l.25-.25-1.48-1.48c-.17.17-.32.35-.44.54-.37.55-.58,1.22-.58,1.93,0,.17.01.33.03.5.04.27.11.54.21.78.09.23.2.45.34.65.13.2.28.38.44.54l.5-.5.99-.99ZM9.59,14.56l.43.43-.81.81c.03-.45.16-.88.38-1.25ZM9.3,16.71l.72-.72.5.5-.93.93c-.13-.22-.23-.45-.29-.7ZM12,18.32c-.32,0-.58.26-.58.58s.26.58.58.58.58-.26.58-.58-.26-.58-.58-.58ZM12.49,16.97l-.5-.49-.25.25-.25.25-1.22,1.22-.5.5c.18.15.38.28.6.39l.53-.53,1.09-1.09,1.09,1.09.53.53c.21-.11.41-.24.6-.39l-.5-.5-1.22-1.22Z"/>
    </g>
    <g class="cls-3">
      <path class="cls-2" d="M12,2.19c.24,0,.49.01.73.04,2.89.35,5.07,2.92,5.07,5.98v1.97h2.2c.99,0,1.8.81,1.8,1.8v8c0,.99-.81,1.8-1.8,1.8H4c-.99,0-1.8-.81-1.8-1.8v-8c0-.99.81-1.8,1.8-1.8h2.2v-2.2c0-1.55.6-3.01,1.7-4.1,1.1-1.1,2.55-1.7,4.1-1.7M7.8,10.19h8.4v-2.04c0-2.08-1.4-3.87-3.32-4.27-.29-.06-.59-.09-.88-.09-2.32,0-4.2,1.88-4.2,4.2v2.2M12,20.19c2.32,0,4.2-1.88,4.2-4.2s-1.88-4.2-4.2-4.2-4.2,1.88-4.2,4.2,1.88,4.2,4.2,4.2M12,1.99c-3.31,0-6,2.69-6,6v2h-2c-1.1,0-2,.9-2,2v8c0,1.1.9,2,2,2h16c1.1,0,2-.9,2-2v-8c0-1.1-.9-2-2-2h-2v-1.77c0-3.07-2.2-5.81-5.25-6.18-.25-.03-.5-.05-.75-.05h0ZM8,9.99v-2c0-2.21,1.79-4,4-4,.27,0,.55.03.84.09,1.88.38,3.16,2.15,3.16,4.07v1.84h-8ZM12,19.99c-2.21,0-4-1.79-4-4s1.79-4,4-4,4,1.79,4,4-1.79,4-4,4h0Z"/>
    </g>
  </g>
</svg>