<?xml version="1.0" encoding="UTF-8"?>
<svg id="Layer_10" data-name="Layer 10" xmlns="http://www.w3.org/2000/svg" xmlns:xlink="http://www.w3.org/1999/xlink" viewBox="0 0 24 24">
  <defs>
    <style>
      .cls-1 {
        fill: #fff;
      }

      .cls-2 {
        opacity: .4;
      }

      .cls-3 {
        fill: url(#linear-gradient);
      }
    </style>
    <linearGradient id="linear-gradient" x1="6.94" y1="6.91" x2="18.38" y2="18.35" gradientUnits="userSpaceOnUse">
      <stop offset="0" stop-color="#e0e2fb"/>
      <stop offset=".25" stop-color="#a8bfe2"/>
      <stop offset=".5" stop-color="#c6f7cf"/>
      <stop offset=".75" stop-color="#abefea"/>
      <stop offset="1" stop-color="#f0f8f7"/>
    </linearGradient>
  </defs>
  <g id="Chart_2">
    <path class="cls-3" d="M19.69,13h-8.39c-.17,0-.3-.13-.3-.3V4.31c0-.17-.14-.31-.31-.31-4.91.17-8.82,4.27-8.68,9.25.13,4.7,4.05,8.61,8.74,8.74,4.98.14,9.08-3.77,9.25-8.68,0-.17-.14-.31-.31-.31ZM13.42,2c-.23-.01-.42.18-.42.41v8.19c0,.22.18.4.4.4h8.19c.23,0,.42-.19.41-.42-.21-4.64-3.94-8.37-8.58-8.58Z"/>
    <g class="cls-2">
      <path class="cls-1" d="M13.4,2v.2c4.58.21,8.19,3.82,8.4,8.39,0,.05-.02.1-.06.14-.04.04-.1.07-.15.07h-8.19c-.11,0-.2-.09-.2-.2V2.41c0-.11.09-.21.2-.21v-.2M10.7,4v.2c.06,0,.1.05.1.11v8.39c0,.28.22.5.5.5h8.39s.06.01.08.03c.01.01.03.04.03.07-.16,4.76-4.03,8.5-8.8,8.5-.08,0-.17,0-.25,0-4.59-.13-8.42-3.96-8.55-8.55-.13-4.82,3.68-8.88,8.49-9.05v-.2M13.4,2c-.22,0-.4.19-.4.41v8.19c0,.22.18.4.4.4h8.19c.23,0,.42-.19.41-.42-.21-4.64-3.94-8.37-8.58-8.58,0,0-.01,0-.02,0h0ZM10.7,4s0,0-.01,0c-4.91.17-8.82,4.27-8.69,9.25.13,4.7,4.05,8.61,8.74,8.74.09,0,.17,0,.26,0,4.87,0,8.83-3.86,9-8.69,0-.17-.14-.31-.31-.31h-8.39c-.17,0-.3-.13-.3-.3V4.31c0-.17-.14-.31-.3-.31h0Z"/>
    </g>
  </g>
</svg>