<?xml version="1.0" encoding="UTF-8"?>
<svg id="Layer_10" data-name="Layer 10" xmlns="http://www.w3.org/2000/svg" xmlns:xlink="http://www.w3.org/1999/xlink" viewBox="0 0 24 24">
  <defs>
    <style>
      .cls-1 {
        fill: #fff;
      }

      .cls-2 {
        opacity: .4;
      }

      .cls-3 {
        fill: url(#linear-gradient);
      }
    </style>
    <linearGradient id="linear-gradient" x1="4.15" y1="4.15" x2="18.29" y2="18.29" gradientUnits="userSpaceOnUse">
      <stop offset="0" stop-color="#e0e2fb"/>
      <stop offset=".25" stop-color="#a8bfe2"/>
      <stop offset=".5" stop-color="#c6f7cf"/>
      <stop offset=".75" stop-color="#abefea"/>
      <stop offset="1" stop-color="#f0f8f7"/>
    </linearGradient>
  </defs>
  <g id="Location">
    <path class="cls-3" d="M12,10.5c-.83,0-1.5.67-1.5,1.5s.67,1.5,1.5,1.5,1.5-.67,1.5-1.5-.67-1.5-1.5-1.5ZM12,2C6.48,2,2,6.48,2,12s4.48,10,10,10,10-4.48,10-10S17.52,2,12,2ZM16.95,8.13l-1.75,4.94c-.35.99-1.14,1.77-2.12,2.12l-4.94,1.75c-.69.24-1.33-.39-1.08-1.08l1.75-4.94c.35-.99,1.14-1.77,2.12-2.12l4.94-1.75c.69-.24,1.33.39,1.08,1.08Z"/>
    <g class="cls-2">
      <path class="cls-1" d="M12,2.2c5.4,0,9.8,4.4,9.8,9.8s-4.4,9.8-9.8,9.8S2.2,17.4,2.2,12,6.6,2.2,12,2.2M7.83,17.2c.12,0,.25-.02.37-.06l4.94-1.75c1.04-.37,1.88-1.21,2.24-2.24l1.75-4.94c.12-.33.07-.69-.12-.96-.19-.27-.51-.44-.84-.44h0c-.12,0-.25.02-.37.06l-4.94,1.75c-1.04.37-1.88,1.21-2.24,2.24l-1.75,4.94c-.12.33-.07.69.12.96.19.27.51.44.84.44M12,10.7c.72,0,1.3.58,1.3,1.3s-.58,1.3-1.3,1.3-1.3-.58-1.3-1.3.58-1.3,1.3-1.3M12,2C6.48,2,2,6.48,2,12s4.48,10,10,10,10-4.48,10-10S17.52,2,12,2h0ZM7.83,17c-.56,0-.99-.55-.78-1.13l1.75-4.94c.35-.99,1.14-1.77,2.12-2.12l4.94-1.75c.1-.04.2-.05.3-.05.56,0,.99.55.78,1.13l-1.75,4.94c-.35.99-1.14,1.77-2.12,2.12l-4.94,1.75c-.1.04-.2.05-.3.05h0ZM12,10.5c-.83,0-1.5.67-1.5,1.5s.67,1.5,1.5,1.5,1.5-.67,1.5-1.5-.67-1.5-1.5-1.5h0Z"/>
    </g>
  </g>
</svg>