<?xml version="1.0" encoding="UTF-8"?>
<svg id="Layer_10" data-name="Layer 10" xmlns="http://www.w3.org/2000/svg" xmlns:xlink="http://www.w3.org/1999/xlink" viewBox="0 0 24 24">
  <defs>
    <style>
      .cls-1 {
        fill: #fff;
      }

      .cls-2 {
        opacity: .4;
      }

      .cls-3 {
        fill: url(#linear-gradient);
      }
    </style>
    <linearGradient id="linear-gradient" x1="5.1" y1="3.27" x2="19.24" y2="17.41" gradientUnits="userSpaceOnUse">
      <stop offset="0" stop-color="#e0e2fb"/>
      <stop offset=".25" stop-color="#a8bfe2"/>
      <stop offset=".5" stop-color="#c6f7cf"/>
      <stop offset=".75" stop-color="#abefea"/>
      <stop offset="1" stop-color="#f0f8f7"/>
    </linearGradient>
  </defs>
  <g id="Partner">
    <path class="cls-3" d="M19.36,4.07c-.97-.72-2.06-1.06-3.14-1.06-1.4,0-2.78.58-3.85,1.67-.21.21-.53.21-.73,0-1.07-1.09-2.45-1.67-3.86-1.67-1.08,0-2.16.34-3.13,1.06-2.68,1.98-3.45,6.06-1.72,9.12,4.43,7.82,7.8,7.82,9.07,7.82s4.64,0,9.07-7.82c1.73-3.06.96-7.13-1.71-9.11ZM12,19c-.86,0-3.47,0-7.33-6.81-1.23-2.17-.69-5.15,1.16-6.52.59-.44,1.27-.67,1.95-.67,1,0,1.97.49,2.68,1.35l.27.33-1.56,1.56c-.92.92-1.1,2.43-.27,3.44.95,1.16,2.67,1.23,3.71.19l.39-.39,3.85,3.85c.14.14.16.38.03.54-2.51,3.11-4.22,3.13-4.88,3.13Z"/>
    <g class="cls-2">
      <path class="cls-1" d="M7.78,3.2c1.37,0,2.69.57,3.71,1.61.14.14.32.22.51.22s.37-.08.51-.22c1.02-1.04,2.34-1.61,3.71-1.61,1.07,0,2.12.35,3.02,1.02,2.59,1.92,3.34,5.89,1.66,8.85-4.38,7.72-7.66,7.72-8.9,7.72s-4.52,0-8.9-7.72c-1.68-2.97-.94-6.94,1.66-8.86.9-.67,1.95-1.02,3.02-1.02M12,19.2c.67,0,2.45,0,5.04-3.2.19-.24.17-.59-.04-.81l-3.85-3.85-.14-.14-.14.14-.39.39c-.43.43-1.01.67-1.63.67-.69,0-1.34-.31-1.79-.85-.74-.9-.62-2.29.26-3.18l1.56-1.56.13-.13-.11-.14-.27-.33c-.74-.91-1.78-1.42-2.83-1.42-.72,0-1.44.24-2.07.71-1.94,1.43-2.49,4.53-1.22,6.78,3.92,6.91,6.62,6.91,7.51,6.91M7.78,3c-1.08,0-2.16.34-3.13,1.06-2.68,1.98-3.45,6.06-1.72,9.12,4.43,7.82,7.8,7.82,9.07,7.82s4.64,0,9.07-7.82c1.73-3.06.96-7.13-1.71-9.11-.97-.72-2.06-1.06-3.14-1.06h0c-1.4,0-2.78.58-3.85,1.67-.1.1-.23.16-.37.16s-.26-.05-.37-.16c-1.07-1.09-2.45-1.67-3.86-1.67h0ZM12,19c-.86,0-3.47,0-7.33-6.81-1.23-2.17-.69-5.15,1.16-6.52.59-.44,1.27-.67,1.95-.67,1,0,1.97.49,2.68,1.35l.27.33-1.56,1.56c-.92.92-1.1,2.43-.27,3.44.5.62,1.22.92,1.94.92.64,0,1.28-.24,1.77-.73l.39-.39,3.85,3.85c.14.14.16.38.03.54-2.51,3.11-4.22,3.13-4.88,3.13h0Z"/>
    </g>
  </g>
</svg>