<?xml version="1.0" encoding="UTF-8"?>
<svg id="Layer_10" data-name="Layer 10" xmlns="http://www.w3.org/2000/svg" xmlns:xlink="http://www.w3.org/1999/xlink" viewBox="0 0 24 24">
  <defs>
    <style>
      .cls-1 {
        fill: #fff;
      }

      .cls-2 {
        opacity: .4;
      }

      .cls-3 {
        fill: url(#linear-gradient);
      }
    </style>
    <linearGradient id="linear-gradient" x1="4.57" y1="4.69" x2="18.71" y2="18.83" gradientUnits="userSpaceOnUse">
      <stop offset="0" stop-color="#e0e2fb"/>
      <stop offset=".25" stop-color="#a8bfe2"/>
      <stop offset=".5" stop-color="#c6f7cf"/>
      <stop offset=".75" stop-color="#abefea"/>
      <stop offset="1" stop-color="#f0f8f7"/>
    </linearGradient>
  </defs>
  <g id="Comunity_2">
    <path class="cls-3" d="M18.1,5.01c0-.67-.55-1.22-1.22-1.22s-1.22.55-1.22,1.22c0,.37-.1,3.66-3.66,3.66s-3.65-3.05-3.66-3.66c0-.67-.55-1.22-1.22-1.22s-1.22.55-1.22,1.22c0,2.11,1.27,6.1,6.1,6.1s6.1-3.99,6.1-6.1ZM12,7.45c1.35,0,2.44-1.09,2.44-2.44s-1.09-2.44-2.44-2.44-2.44,1.09-2.44,2.44,1.09,2.44,2.44,2.44ZM2.61,10.7c-.58.34-.78,1.08-.45,1.67.34.58,1.08.78,1.67.45.32-.19,3.22-1.74,5,1.34,1.72,2.98-.82,4.69-1.34,5-.58.34-.78,1.08-.45,1.67s1.08.78,1.67.45c1.83-1.05,4.65-4.15,2.23-8.33-2.41-4.18-6.51-3.29-8.33-2.23ZM7.77,14.77c-.67-1.17-2.17-1.57-3.33-.89-1.17.67-1.57,2.17-.89,3.33.67,1.17,2.17,1.57,3.33.89,1.17-.67,1.57-2.17.89-3.33ZM21.39,10.7c-1.83-1.05-5.92-1.95-8.33,2.23-2.41,4.18.41,7.28,2.23,8.33.58.34,1.33.14,1.67-.45s.14-1.33-.45-1.67c-.32-.19-3.12-1.92-1.34-5,1.72-2.98,4.47-1.64,5-1.34.58.34,1.33.14,1.67-.45.34-.58.14-1.33-.45-1.67ZM19.56,13.87c-1.17-.67-2.66-.27-3.33.89-.67,1.17-.27,2.66.89,3.33,1.17.67,2.66.27,3.33-.89.67-1.17.27-2.66-.89-3.33Z"/>
    <g class="cls-2">
      <path class="cls-1" d="M12,2.77c1.24,0,2.24,1,2.24,2.24s-1,2.24-2.24,2.24-2.24-1-2.24-2.24,1-2.24,2.24-2.24M16.88,3.99c.56,0,1.02.46,1.02,1.02,0,2.04-1.23,5.9-5.9,5.9s-5.9-3.86-5.9-5.9c0-.56.46-1.02,1.02-1.02s1.02.46,1.02,1.02c0,.64.23,3.86,3.86,3.86s3.86-3.47,3.86-3.86c0-.56.46-1.02,1.02-1.02M5.92,10.02c1.42,0,3.41.52,4.85,3.01,1.03,1.79,1.19,3.52.46,5.16-.76,1.73-2.2,2.66-2.62,2.9-.16.09-.33.14-.51.14-.36,0-.7-.2-.88-.51-.28-.49-.11-1.11.38-1.39.55-.33,3.23-2.13,1.41-5.27-.95-1.65-2.22-2-3.12-2-1.08,0-1.98.49-2.15.58-.16.09-.33.14-.51.14-.36,0-.7-.2-.88-.51-.14-.24-.17-.51-.1-.77.07-.26.24-.48.48-.62.93-.53,2.13-.85,3.21-.85M18.08,10.02c1.09,0,2.29.32,3.21.85.24.14.4.36.48.62.07.26.03.54-.1.77-.18.31-.52.51-.88.51-.18,0-.35-.05-.51-.14-.31-.18-1.15-.59-2.15-.59-.9,0-2.16.35-3.12,2-.98,1.69-.6,3-.12,3.79.54.89,1.37,1.39,1.53,1.48.49.28.65.91.37,1.39-.18.31-.52.51-.88.51-.18,0-.35-.05-.51-.14-.42-.24-1.86-1.17-2.62-2.9-.72-1.64-.57-3.37.46-5.16,1.44-2.49,3.43-3.01,4.85-3.01M18.34,13.75c.39,0,.78.1,1.12.3.52.3.89.78,1.04,1.36.16.58.08,1.18-.22,1.7-.4.69-1.14,1.12-1.94,1.12-.39,0-.78-.1-1.12-.3-.52-.3-.89-.78-1.04-1.36-.15-.58-.08-1.18.22-1.7.4-.69,1.14-1.12,1.94-1.12M5.66,13.75c.8,0,1.54.43,1.94,1.12.3.52.38,1.12.22,1.7-.15.58-.53,1.06-1.04,1.36-.34.2-.73.3-1.12.3-.8,0-1.54-.43-1.94-1.12-.3-.52-.38-1.12-.22-1.7.15-.58.53-1.06,1.04-1.36.34-.2.73-.3,1.12-.3M12,2.57c-1.35,0-2.44,1.09-2.44,2.44s1.09,2.44,2.44,2.44,2.44-1.09,2.44-2.44-1.09-2.44-2.44-2.44h0ZM16.88,3.79c-.67,0-1.22.55-1.22,1.22,0,.37-.1,3.66-3.66,3.66s-3.65-3.05-3.66-3.66c0-.67-.55-1.22-1.22-1.22s-1.22.55-1.22,1.22c0,2.11,1.27,6.1,6.1,6.1s6.1-3.99,6.1-6.1c0-.67-.55-1.22-1.22-1.22h0ZM5.92,9.82c-1.32,0-2.53.42-3.31.88-.58.34-.78,1.08-.45,1.67.23.39.64.61,1.06.61.21,0,.42-.05.61-.16.17-.1,1.02-.56,2.05-.56.97,0,2.09.41,2.95,1.9,1.72,2.98-.82,4.69-1.34,5-.58.34-.78,1.08-.45,1.67.23.39.64.61,1.06.61.21,0,.42-.05.61-.16,1.83-1.05,4.65-4.15,2.23-8.33-1.37-2.38-3.29-3.11-5.02-3.11h0ZM18.08,9.82c-1.73,0-3.65.74-5.02,3.11-2.41,4.18.41,7.28,2.23,8.33.19.11.4.16.61.16.42,0,.83-.22,1.06-.61.34-.58.14-1.33-.45-1.67-.32-.19-3.12-1.92-1.34-5,.86-1.49,1.98-1.9,2.95-1.9s1.79.41,2.05.56c.19.11.4.16.61.16.42,0,.83-.22,1.06-.61.34-.58.14-1.33-.45-1.67-.79-.46-2-.88-3.31-.88h0ZM18.34,13.55c-.84,0-1.66.44-2.12,1.22-.67,1.17-.27,2.66.89,3.33.38.22.8.33,1.22.33.84,0,1.66-.44,2.12-1.22.67-1.17.27-2.66-.89-3.33-.38-.22-.8-.33-1.22-.33h0ZM5.66,13.55c-.41,0-.83.11-1.22.33-1.17.67-1.57,2.17-.89,3.33.45.78,1.27,1.22,2.12,1.22.41,0,.83-.11,1.22-.33,1.17-.67,1.57-2.17.89-3.33-.45-.78-1.27-1.22-2.12-1.22h0Z"/>
    </g>
  </g>
</svg>