<?xml version="1.0" encoding="UTF-8"?>
<svg id="Layer_10" data-name="Layer 10" xmlns="http://www.w3.org/2000/svg" xmlns:xlink="http://www.w3.org/1999/xlink" viewBox="0 0 24 24">
  <defs>
    <style>
      .cls-1 {
        fill: #fff;
      }

      .cls-2 {
        opacity: .4;
      }

      .cls-3 {
        fill: url(#linear-gradient);
      }
    </style>
    <linearGradient id="linear-gradient" x1="5.86" y1="5.86" x2="18.44" y2="18.44" gradientUnits="userSpaceOnUse">
      <stop offset="0" stop-color="#e0e2fb"/>
      <stop offset=".25" stop-color="#a8bfe2"/>
      <stop offset=".5" stop-color="#c6f7cf"/>
      <stop offset=".75" stop-color="#abefea"/>
      <stop offset="1" stop-color="#f0f8f7"/>
    </linearGradient>
  </defs>
  <g id="Mail">
    <path class="cls-3" d="M20,4.5H4c-1.1,0-2,.9-2,2v11c0,1.1.9,2,2,2h16c1.1,0,2-.9,2-2V6.5c0-1.1-.9-2-2-2ZM18.64,8.39l-4.72,3.93c-.56.46-1.24.7-1.92.7s-1.36-.23-1.92-.7l-4.72-3.93c-.42-.35-.48-.98-.13-1.41.35-.42.98-.48,1.41-.13l4.72,3.93c.37.31.91.31,1.28,0l4.72-3.93c.42-.35,1.05-.3,1.41.13s.3,1.05-.13,1.41Z"/>
    <g class="cls-2">
      <path class="cls-1" d="M20,4.7c.99,0,1.8.81,1.8,1.8v11c0,.99-.81,1.8-1.8,1.8H4c-.99,0-1.8-.81-1.8-1.8V6.5c0-.99.81-1.8,1.8-1.8h16M12,10.81c-.19,0-.37-.07-.51-.19l-4.72-3.93c-.22-.18-.49-.28-.77-.28-.36,0-.69.16-.92.43-.21.25-.3.56-.27.88.03.32.18.61.43.81l4.72,3.93c.57.48,1.3.74,2.05.74s1.47-.26,2.05-.74l4.72-3.93c.25-.21.4-.49.43-.81.03-.32-.07-.63-.27-.88-.23-.27-.56-.43-.92-.43-.28,0-.55.1-.77.28l-4.72,3.93c-.14.12-.33.19-.51.19M20,4.5H4c-1.1,0-2,.9-2,2v11c0,1.1.9,2,2,2h16c1.1,0,2-.9,2-2V6.5c0-1.1-.9-2-2-2h0ZM12,11.01c.23,0,.45-.08.64-.23l4.72-3.93c.19-.16.41-.23.64-.23.29,0,.57.12.77.36.35.42.3,1.05-.13,1.41l-4.72,3.93c-.56.46-1.24.7-1.92.7s-1.36-.23-1.92-.7l-4.72-3.93c-.42-.35-.48-.98-.13-1.41.2-.24.48-.36.77-.36.23,0,.45.08.64.23l4.72,3.93c.19.15.41.23.64.23h0Z"/>
    </g>
  </g>
</svg>