<?xml version="1.0" encoding="UTF-8"?>
<svg id="Layer_10" data-name="Layer 10" xmlns="http://www.w3.org/2000/svg" xmlns:xlink="http://www.w3.org/1999/xlink" viewBox="0 0 24 24">
  <defs>
    <style>
      .cls-1 {
        fill: #fff;
      }

      .cls-2 {
        opacity: .4;
      }

      .cls-3 {
        fill: url(#linear-gradient);
      }
    </style>
    <linearGradient id="linear-gradient" x1="6.97" y1="7.97" x2="17.58" y2="18.58" gradientUnits="userSpaceOnUse">
      <stop offset="0" stop-color="#ead0d0"/>
      <stop offset=".25" stop-color="#c17ca5"/>
      <stop offset=".5" stop-color="#edc8db"/>
      <stop offset=".75" stop-color="#d88dcd"/>
      <stop offset="1" stop-color="#f7f0f0"/>
    </linearGradient>
  </defs>
  <g id="Trashcan">
    <path class="cls-3" d="M5.75,6.5h12.5c.69,0,1.25-.56,1.25-1.25s-.56-1.25-1.25-1.25h-5v-.75c0-.69-.56-1.25-1.25-1.25s-1.25.56-1.25,1.25v.75h-5c-.69,0-1.25.56-1.25,1.25s.56,1.25,1.25,1.25ZM18.25,7.5H5.75c-.69,0-1.25.56-1.25,1.25v12c0,.69.56,1.25,1.25,1.25h12.5c.69,0,1.25-.56,1.25-1.25v-12c0-.69-.56-1.25-1.25-1.25ZM9.75,18.15c0,.41-.34.75-.75.75s-.75-.34-.75-.75v-6.5c0-.41.34-.75.75-.75s.75.34.75.75v6.5ZM15.75,18.15c0,.41-.34.75-.75.75s-.75-.34-.75-.75v-6.5c0-.41.34-.75.75-.75s.75.34.75.75v6.5Z"/>
    <g class="cls-2">
      <path class="cls-1" d="M12,2.2c.58,0,1.05.47,1.05,1.05v.95h5.2c.58,0,1.05.47,1.05,1.05s-.47,1.05-1.05,1.05H5.75c-.58,0-1.05-.47-1.05-1.05s.47-1.05,1.05-1.05h5.2v-.95c0-.58.47-1.05,1.05-1.05M18.25,7.7c.58,0,1.05.47,1.05,1.05v12c0,.58-.47,1.05-1.05,1.05H5.75c-.58,0-1.05-.47-1.05-1.05v-12c0-.58.47-1.05,1.05-1.05h12.5M15,19.1c.52,0,.95-.43.95-.95v-6.5c0-.52-.43-.95-.95-.95s-.95.43-.95.95v6.5c0,.52.43.95.95.95M9,19.1c.52,0,.95-.43.95-.95v-6.5c0-.52-.43-.95-.95-.95s-.95.43-.95.95v6.5c0,.52.43.95.95.95M12,2c-.69,0-1.25.56-1.25,1.25v.75h-5c-.69,0-1.25.56-1.25,1.25s.56,1.25,1.25,1.25h12.5c.69,0,1.25-.56,1.25-1.25s-.56-1.25-1.25-1.25h-5v-.75c0-.69-.56-1.25-1.25-1.25h0ZM18.25,7.5H5.75c-.69,0-1.25.56-1.25,1.25v12c0,.69.56,1.25,1.25,1.25h12.5c.69,0,1.25-.56,1.25-1.25v-12c0-.69-.56-1.25-1.25-1.25h0ZM15,18.9c-.41,0-.75-.34-.75-.75v-6.5c0-.41.34-.75.75-.75s.75.34.75.75v6.5c0,.41-.34.75-.75.75h0ZM9,18.9c-.41,0-.75-.34-.75-.75v-6.5c0-.41.34-.75.75-.75s.75.34.75.75v6.5c0,.41-.34.75-.75.75h0Z"/>
    </g>
  </g>
</svg>