<?xml version="1.0" encoding="UTF-8"?>
<svg id="Layer_10" data-name="Layer 10" xmlns="http://www.w3.org/2000/svg" xmlns:xlink="http://www.w3.org/1999/xlink" viewBox="0 0 24 24">
  <defs>
    <style>
      .cls-1 {
        fill: #fff;
      }

      .cls-2 {
        opacity: .4;
      }

      .cls-3 {
        fill: url(#linear-gradient);
      }
    </style>
    <linearGradient id="linear-gradient" x1="5.68" y1="10.43" x2="17.16" y2="21.91" gradientUnits="userSpaceOnUse">
      <stop offset="0" stop-color="#e0e2fb"/>
      <stop offset=".25" stop-color="#a8bfe2"/>
      <stop offset=".5" stop-color="#c6f7cf"/>
      <stop offset=".75" stop-color="#abefea"/>
      <stop offset="1" stop-color="#f0f8f7"/>
    </linearGradient>
  </defs>
  <g id="Efficiency">
    <path class="cls-3" d="M20.65,22c.85-1.47,1.35-3.18,1.35-5,0-5.52-4.48-10-10-10S2,11.48,2,17c0,1.82.5,3.53,1.35,5h17.3ZM12,15c.18,0,.35.03.51.07l3.02-3.02c.39-.39,1.02-.39,1.41,0,.39.39.39,1.02,0,1.41l-3.02,3.02c.04.16.07.33.07.51,0,1.1-.9,2-2,2s-2-.9-2-2,.9-2,2-2Z"/>
    <g class="cls-2">
      <path class="cls-1" d="M12,7.15c5.43,0,9.85,4.42,9.85,9.85,0,1.69-.44,3.37-1.29,4.85H3.44c-.84-1.48-1.29-3.16-1.29-4.85,0-5.43,4.42-9.85,9.85-9.85M12.47,14.91c-.17-.04-.32-.06-.47-.06-1.19,0-2.15.96-2.15,2.15s.96,2.15,2.15,2.15,2.15-.96,2.15-2.15c0-.15-.02-.3-.06-.47l2.96-2.96c.22-.22.34-.51.34-.81s-.12-.6-.34-.81c-.22-.22-.51-.34-.81-.34s-.6.12-.81.34l-2.96,2.96M12,7c-5.52,0-10,4.48-10,10,0,1.82.5,3.53,1.35,5h17.3c.85-1.47,1.35-3.18,1.35-5,0-5.52-4.48-10-10-10h0ZM12.51,15.07l3.02-3.02c.2-.2.45-.29.71-.29s.51.1.71.29c.39.39.39,1.02,0,1.41l-3.02,3.02c.04.16.07.33.07.51,0,1.1-.9,2-2,2s-2-.9-2-2,.9-2,2-2c.18,0,.35.03.51.07h0Z"/>
    </g>
  </g>
</svg>