<?xml version="1.0" encoding="UTF-8"?>
<svg id="Layer_10" data-name="Layer 10" xmlns="http://www.w3.org/2000/svg" xmlns:xlink="http://www.w3.org/1999/xlink" viewBox="0 0 24 24">
  <defs>
    <style>
      .cls-1 {
        fill: #fff;
      }

      .cls-2 {
        opacity: .4;
      }

      .cls-3 {
        fill: url(#linear-gradient);
      }
    </style>
    <linearGradient id="linear-gradient" x1="2" y1="12" x2="22" y2="12" gradientUnits="userSpaceOnUse">
      <stop offset="0" stop-color="#e0e2fb"/>
      <stop offset=".25" stop-color="#a8bfe2"/>
      <stop offset=".5" stop-color="#c6f7cf"/>
      <stop offset=".75" stop-color="#abefea"/>
      <stop offset="1" stop-color="#f0f8f7"/>
    </linearGradient>
  </defs>
  <g id="Rocket">
    <path class="cls-3" d="M20.55,15.31c-.08-.59-.81-.83-1.23-.41l-3.51,3.51c-.33.33-.4.85-.15,1.26l1.1,1.82c.35.58,1.14.67,1.61.2l1.62-1.62c.69-.69,1.01-1.66.87-2.62l-.31-2.14ZM5.59,8.19l3.51-3.51c.42-.42.18-1.14-.41-1.23l-2.14-.31c-.96-.14-1.94.18-2.62.87l-1.62,1.62c-.47.47-.37,1.27.2,1.61l1.82,1.1c.41.24.93.18,1.26-.15ZM18.88,2h-3.49c-.87-.04-1.72.29-2.34.91l-7.16,7.16c-.9.9-1.33,2.15-1.18,3.41.11.89.57,1.7,1.2,2.34.32.32.84.32,1.16,0l1.43-1.43c.3-.3.79-.3,1.1,0,.3.3.3.79,0,1.1l-1.43,1.43c-.32.32-.32.84,0,1.16.63.63,1.45,1.1,2.34,1.2,1.26.15,2.52-.28,3.41-1.18l7.16-7.16c.62-.62.95-1.47.9-2.34v-3.49c0-2-1.25-3.12-3.11-3.12ZM16.91,9.28c-.6.61-1.59.61-2.19,0-.6-.6-.6-1.59,0-2.19s1.59-.6,2.19,0,.6,1.59,0,2.19Z"/>
    <g class="cls-2">
      <path class="cls-1" d="M15.25,2.2s.09,0,.15,0h3.49c1.83,0,2.92,1.09,2.92,2.91v3.5c.04.81-.27,1.61-.85,2.19l-7.16,7.16c-.74.74-1.73,1.15-2.78,1.15-.16,0-.31,0-.47-.03-.79-.09-1.58-.5-2.22-1.15-.24-.24-.24-.64,0-.88l1.43-1.43c.38-.38.38-1,0-1.38-.18-.18-.43-.29-.69-.29s-.5.1-.69.29l-1.43,1.43c-.12.12-.27.18-.44.18s-.32-.06-.44-.18c-.64-.64-1.05-1.43-1.15-2.22-.14-1.21.26-2.39,1.12-3.25l7.16-7.16c.55-.55,1.28-.85,2.05-.85M15.81,9.94c.47,0,.91-.18,1.24-.51.68-.68.68-1.79,0-2.47-.33-.33-.77-.51-1.24-.51s-.91.18-1.24.51c-.68.68-.68,1.79,0,2.47.33.33.77.51,1.24.51M6.1,3.31c.14,0,.28,0,.41.03l2.14.31c.2.03.36.16.42.35.06.19.02.39-.13.53l-3.51,3.51c-.16.16-.36.24-.59.24-.15,0-.3-.04-.43-.12l-1.82-1.1c-.22-.13-.37-.36-.4-.61-.03-.26.05-.51.24-.69l1.62-1.62c.54-.54,1.27-.84,2.04-.84M19.83,14.89c.23,0,.48.15.52.45l.31,2.14c.13.9-.18,1.81-.81,2.45l-1.62,1.62c-.16.16-.36.24-.58.24-.3,0-.56-.15-.72-.41l-1.1-1.82c-.2-.33-.15-.75.12-1.02l3.51-3.51c.13-.13.27-.15.36-.15M15.25,2c-.82,0-1.61.33-2.19.91l-7.16,7.16c-.9.9-1.33,2.15-1.18,3.41.11.89.57,1.7,1.2,2.34.16.16.37.24.58.24s.42-.08.58-.24l1.43-1.43c.15-.15.35-.23.55-.23s.4.08.55.23c.3.3.3.79,0,1.1l-1.43,1.43c-.32.32-.32.84,0,1.16.63.63,1.45,1.1,2.34,1.2.16.02.33.03.49.03,1.09,0,2.14-.43,2.92-1.21l7.16-7.16c.62-.62.95-1.47.9-2.34v-3.49c0-2-1.25-3.12-3.11-3.12h-3.49s-.1,0-.15,0h0ZM15.81,9.74c-.4,0-.79-.15-1.1-.45-.6-.6-.6-1.59,0-2.19.3-.3.7-.45,1.1-.45s.79.15,1.1.45c.6.6.6,1.59,0,2.19-.3.3-.7.45-1.1.45h0ZM6.1,3.11c-.81,0-1.6.32-2.18.9l-1.62,1.62c-.47.47-.37,1.27.2,1.61l1.82,1.1c.17.1.35.15.53.15.27,0,.53-.1.73-.3l3.51-3.51c.42-.42.18-1.14-.41-1.23l-2.14-.31c-.15-.02-.3-.03-.44-.03h0ZM19.83,14.69c-.18,0-.36.07-.51.21l-3.51,3.51c-.33.33-.4.85-.15,1.26l1.1,1.82c.2.33.54.5.89.5.26,0,.52-.1.73-.3l1.62-1.62c.69-.69,1.01-1.66.87-2.62l-.31-2.14c-.06-.39-.38-.62-.72-.62h0Z"/>
    </g>
  </g>
</svg>