<?xml version="1.0" encoding="UTF-8"?>
<svg id="Layer_10" data-name="Layer 10" xmlns="http://www.w3.org/2000/svg" xmlns:xlink="http://www.w3.org/1999/xlink" viewBox="0 0 24 24">
  <defs>
    <style>
      .cls-1 {
        fill: #fff;
      }

      .cls-2 {
        opacity: .4;
      }

      .cls-3 {
        fill: url(#linear-gradient);
      }
    </style>
    <linearGradient id="linear-gradient" x1="5.68" y1="10.43" x2="17.16" y2="21.91" gradientUnits="userSpaceOnUse">
      <stop offset="0" stop-color="#e0e2fb"/>
      <stop offset=".25" stop-color="#a8bfe2"/>
      <stop offset=".5" stop-color="#c6f7cf"/>
      <stop offset=".75" stop-color="#abefea"/>
      <stop offset="1" stop-color="#f0f8f7"/>
    </linearGradient>
  </defs>
  <g id="Efficiency">
    <path class="cls-3" d="M20.65,22c.85-1.47,1.35-3.18,1.35-5,0-5.52-4.48-10-10-10S2,11.48,2,17c0,1.82.5,3.53,1.35,5h17.3ZM12,15c.18,0,.35.03.51.07l3.02-3.02c.39-.39,1.02-.39,1.41,0,.39.39.39,1.02,0,1.41l-3.02,3.02c.04.16.07.33.07.51,0,1.1-.9,2-2,2s-2-.9-2-2,.9-2,2-2Z"/>
    <g class="cls-2">
      <path class="cls-1" d="M12,7.2c5.4,0,9.8,4.4,9.8,9.8,0,1.67-.44,3.33-1.26,4.8H3.46c-.83-1.47-1.26-3.13-1.26-4.8,0-5.4,4.4-9.8,9.8-9.8M12.45,14.85c-.16-.04-.31-.05-.45-.05-1.21,0-2.2.99-2.2,2.2s.99,2.2,2.2,2.2,2.2-.99,2.2-2.2c0-.14-.02-.29-.05-.45l2.94-2.94c.23-.23.35-.53.35-.85s-.12-.62-.35-.85c-.23-.23-.53-.35-.85-.35s-.62.12-.85.35l-2.94,2.94M12,7c-5.52,0-10,4.48-10,10,0,1.82.5,3.53,1.35,5h17.3c.85-1.47,1.35-3.18,1.35-5,0-5.52-4.48-10-10-10h0ZM12.51,15.07l3.02-3.02c.2-.2.45-.29.71-.29s.51.1.71.29c.39.39.39,1.02,0,1.41l-3.02,3.02c.04.16.07.33.07.51,0,1.1-.9,2-2,2s-2-.9-2-2,.9-2,2-2c.18,0,.35.03.51.07h0Z"/>
    </g>
  </g>
</svg>