<?xml version="1.0" encoding="UTF-8"?>
<svg id="Layer_10" data-name="Layer 10" xmlns="http://www.w3.org/2000/svg" xmlns:xlink="http://www.w3.org/1999/xlink" viewBox="0 0 24 24">
  <defs>
    <style>
      .cls-1 {
        fill: #fff;
      }

      .cls-2 {
        opacity: .4;
      }

      .cls-3 {
        fill: url(#linear-gradient);
      }
    </style>
    <linearGradient id="linear-gradient" x1="3.6" y1="6.63" x2="16.42" y2="19.44" gradientUnits="userSpaceOnUse">
      <stop offset="0" stop-color="#e0e2fb"/>
      <stop offset=".25" stop-color="#a8bfe2"/>
      <stop offset=".5" stop-color="#c6f7cf"/>
      <stop offset=".75" stop-color="#abefea"/>
      <stop offset="1" stop-color="#f0f8f7"/>
    </linearGradient>
  </defs>
  <g id="Personal">
    <path class="cls-3" d="M18,16H6c-1.66,0-3,1.34-3,3v2.2c0,.44.36.8.8.8h16.4c.44,0,.8-.36.8-.8v-2.2c0-1.66-1.34-3-3-3ZM12,14c3.31,0,6-2.69,6-6S15.31,2,12,2s-6,2.69-6,6,2.69,6,6,6Z"/>
    <g class="cls-2">
      <path class="cls-1" d="M12,2.2c3.2,0,5.8,2.6,5.8,5.8s-2.6,5.8-5.8,5.8-5.8-2.6-5.8-5.8,2.6-5.8,5.8-5.8M18,16.2c1.54,0,2.8,1.26,2.8,2.8v2.2c0,.33-.27.6-.6.6H3.8c-.33,0-.6-.27-.6-.6v-2.2c0-1.54,1.26-2.8,2.8-2.8h12M12,2c-3.31,0-6,2.69-6,6s2.69,6,6,6,6-2.69,6-6-2.69-6-6-6h0ZM18,16H6c-1.66,0-3,1.34-3,3v2.2c0,.44.36.8.8.8h16.4c.44,0,.8-.36.8-.8v-2.2c0-1.66-1.34-3-3-3h0Z"/>
    </g>
  </g>
</svg>