<?xml version="1.0" encoding="UTF-8"?>
<svg id="Layer_10" data-name="Layer 10" xmlns="http://www.w3.org/2000/svg" xmlns:xlink="http://www.w3.org/1999/xlink" viewBox="0 0 24 24">
  <defs>
    <style>
      .cls-1 {
        fill: #fff;
      }

      .cls-2 {
        fill: url(#linear-gradient);
      }

      .cls-3 {
        opacity: .5;
      }
    </style>
    <linearGradient id="linear-gradient" x1="6.32" y1="7.37" x2="20.5" y2="21.55" gradientUnits="userSpaceOnUse">
      <stop offset="0" stop-color="#e0e2fb"/>
      <stop offset=".25" stop-color="#a8bfe2"/>
      <stop offset=".5" stop-color="#c6f7cf"/>
      <stop offset=".75" stop-color="#abefea"/>
      <stop offset="1" stop-color="#f0f8f7"/>
    </linearGradient>
  </defs>
  <g id="Chart_1">
    <path class="cls-2" d="M21.14,20.29H2.86c-.47,0-.86.38-.86.86s.38.86.86.86h18.29c.47,0,.86-.38.86-.86s-.38-.86-.86-.86ZM16.43,19.14h2.57c.55,0,1-.45,1-1V3c0-.55-.45-1-1-1h-2.57c-.55,0-1,.45-1,1v15.14c0,.55.45,1,1,1ZM5,19.14h2.57c.55,0,1-.45,1-1v-9.43c0-.55-.45-1-1-1h-2.57c-.55,0-1,.45-1,1v9.43c0,.55.45,1,1,1ZM10.71,19.14h2.57c.55,0,1-.45,1-1v-5.43c0-.55-.45-1-1-1h-2.57c-.55,0-1,.45-1,1v5.43c0,.55.45,1,1,1Z"/>
    <g class="cls-3">
      <path class="cls-1" d="M19,2.2c.44,0,.8.36.8.8v15.14c0,.44-.36.8-.8.8h-2.57c-.44,0-.8-.36-.8-.8V3c0-.44.36-.8.8-.8h2.57M7.57,7.91c.44,0,.8.36.8.8v9.43c0,.44-.36.8-.8.8h-2.57c-.44,0-.8-.36-.8-.8v-9.43c0-.44.36-.8.8-.8h2.57M13.29,11.91c.44,0,.8.36.8.8v5.43c0,.44-.36.8-.8.8h-2.57c-.44,0-.8-.36-.8-.8v-5.43c0-.44.36-.8.8-.8h2.57M21.14,20.49c.36,0,.66.29.66.66s-.29.66-.66.66H2.86c-.36,0-.66-.29-.66-.66s.29-.66.66-.66h18.29M19,2h-2.57c-.55,0-1,.45-1,1v15.14c0,.55.45,1,1,1h2.57c.55,0,1-.45,1-1V3c0-.55-.45-1-1-1h0ZM7.57,7.71h-2.57c-.55,0-1,.45-1,1v9.43c0,.55.45,1,1,1h2.57c.55,0,1-.45,1-1v-9.43c0-.55-.45-1-1-1h0ZM13.29,11.71h-2.57c-.55,0-1,.45-1,1v5.43c0,.55.45,1,1,1h2.57c.55,0,1-.45,1-1v-5.43c0-.55-.45-1-1-1h0ZM21.14,20.29H2.86c-.47,0-.86.38-.86.86s.38.86.86.86h18.29c.47,0,.86-.38.86-.86s-.38-.86-.86-.86h0Z"/>
    </g>
  </g>
</svg>