<?xml version="1.0" encoding="UTF-8"?>
<svg id="Layer_10" data-name="Layer 10" xmlns="http://www.w3.org/2000/svg" xmlns:xlink="http://www.w3.org/1999/xlink" viewBox="0 0 24 24">
  <defs>
    <style>
      .cls-1 {
        opacity: .4;
      }

      .cls-2 {
        fill: #f0f9f8;
      }

      .cls-3 {
        fill: url(#linear-gradient);
      }
    </style>
    <linearGradient id="linear-gradient" x1="5.33" y1="5.33" x2="18.67" y2="18.67" gradientUnits="userSpaceOnUse">
      <stop offset="0" stop-color="#e0e2fb"/>
      <stop offset=".25" stop-color="#a8bfe2"/>
      <stop offset=".5" stop-color="#c6f7cf"/>
      <stop offset=".75" stop-color="#abefea"/>
      <stop offset="1" stop-color="#f0f8f7"/>
    </linearGradient>
  </defs>
  <g id="Zalo">
    <path class="cls-3" d="M17.78,12.03c-.35,0-.63.35-.63.78s.28.78.63.78.63-.35.63-.78-.28-.78-.63-.78ZM17,2H7c-2.76,0-5,2.24-5,5v10c0,2.76,2.24,5,5,5h10c2.76,0,5-2.24,5-5V7c0-2.76-2.24-5-5-5ZM7.95,15.2h-2.78c-.35,0-.67-.19-.83-.51-.16-.31-.14-.69.06-.98l1.94-2.84h-1.54c-.44,0-.79-.36-.79-.8s.35-.8.79-.8h2.78c.35,0,.67.19.83.51.16.31.14.69-.06.98l-1.94,2.84h1.55c.44,0,.79.36.79.8s-.35.8-.79.8ZM13.17,14.4c0,.44-.35.8-.79.8-.2,0-.38-.08-.53-.21-.28.13-.58.21-.9.21-1.22,0-2.22-1.07-2.22-2.38s1-2.38,2.22-2.38c.32,0,.63.08.9.21.14-.13.32-.21.53-.21.44,0,.79.36.79.8v3.17ZM15.16,14.4c0,.44-.35.8-.79.8s-.79-.36-.79-.8v-4.8c0-.44.35-.8.79-.8s.79.36.79.8v4.8ZM17.78,15.2c-1.22,0-2.22-1.07-2.22-2.38s1-2.38,2.22-2.38,2.22,1.07,2.22,2.38-1,2.38-2.22,2.38ZM10.95,12.03c-.35,0-.63.35-.63.78s.28.78.63.78.63-.35.63-.78-.28-.78-.63-.78Z"/>
    <g class="cls-1">
      <path class="cls-2" d="M17,2.2c2.65,0,4.8,2.15,4.8,4.8v10c0,2.65-2.15,4.8-4.8,4.8H7c-2.65,0-4.8-2.15-4.8-4.8V7c0-2.65,2.15-4.8,4.8-4.8h10M14.37,15.4c.55,0,.99-.45.99-1v-4.8c0-.55-.45-1-.99-1s-.99.45-.99,1v4.8c0,.55.45,1,.99,1M4.79,11.08h1.16l-1.73,2.52c-.24.35-.27.8-.07,1.18.2.38.58.61,1.01.61h2.78c.55,0,.99-.45.99-1,0-.06,0-.11-.01-.17.43.7,1.18,1.17,2.02,1.17.3,0,.59-.06.87-.18.17.12.36.18.55.18.55,0,.99-.45.99-1v-3.17c0-.55-.45-1-.99-1-.2,0-.39.06-.55.18-.28-.12-.58-.18-.87-.18-1.33,0-2.42,1.16-2.42,2.58,0,.32.06.63.16.92-.18-.2-.45-.33-.74-.33h-1.17l1.73-2.53c.24-.35.27-.8.07-1.18-.2-.38-.58-.61-1.01-.61h-2.78c-.55,0-.99.45-.99,1s.45,1,.99,1M17.78,15.4c1.33,0,2.42-1.16,2.42-2.58s-1.09-2.58-2.42-2.58-2.42,1.16-2.42,2.58,1.08,2.58,2.42,2.58M17.78,12.23c.24,0,.43.27.43.58s-.2.58-.43.58-.43-.27-.43-.58.2-.58.43-.58M10.95,12.23c.24,0,.43.27.43.58s-.2.58-.43.58-.43-.27-.43-.58.2-.58.43-.58M17,2H7c-2.76,0-5,2.24-5,5v10c0,2.76,2.24,5,5,5h10c2.76,0,5-2.24,5-5V7c0-2.76-2.24-5-5-5h0ZM14.37,15.2c-.44,0-.79-.36-.79-.8v-4.8c0-.44.35-.8.79-.8s.79.36.79.8v4.8c0,.44-.35.8-.79.8h0ZM4.79,10.88c-.44,0-.79-.36-.79-.8s.35-.8.79-.8h2.78c.35,0,.67.19.83.51.16.31.14.69-.06.98l-1.94,2.84h1.55c.44,0,.79.36.79.8s-.35.8-.79.8h-2.78c-.35,0-.67-.19-.83-.51-.16-.31-.14-.69.06-.98l1.94-2.84h-1.54ZM17.78,15.2c-1.22,0-2.22-1.07-2.22-2.38s1-2.38,2.22-2.38,2.22,1.07,2.22,2.38-1,2.38-2.22,2.38h0ZM11.85,10.64c.14-.13.32-.21.53-.21.44,0,.79.36.79.8v3.17c0,.44-.35.8-.79.8-.2,0-.38-.08-.53-.21-.28.13-.58.21-.9.21-1.22,0-2.22-1.07-2.22-2.38s1-2.38,2.22-2.38c.32,0,.63.08.9.21h0ZM17.78,12.03c-.35,0-.63.35-.63.78s.28.78.63.78.63-.35.63-.78-.28-.78-.63-.78h0ZM10.95,12.03c-.35,0-.63.35-.63.78s.28.78.63.78.63-.35.63-.78-.28-.78-.63-.78h0Z"/>
    </g>
  </g>
</svg>