<?xml version="1.0" encoding="UTF-8"?>
<svg id="Layer_10" data-name="Layer 10" xmlns="http://www.w3.org/2000/svg" xmlns:xlink="http://www.w3.org/1999/xlink" viewBox="0 0 24 24">
  <defs>
    <style>
      .cls-1 {
        fill: #fff;
      }

      .cls-2 {
        opacity: .4;
      }

      .cls-3 {
        fill: url(#linear-gradient);
      }
    </style>
    <linearGradient id="linear-gradient" x1="2" y1="12" x2="20.62" y2="12" gradientUnits="userSpaceOnUse">
      <stop offset="0" stop-color="#e0e2fb"/>
      <stop offset=".25" stop-color="#a8bfe2"/>
      <stop offset=".5" stop-color="#c6f7cf"/>
      <stop offset=".75" stop-color="#abefea"/>
      <stop offset="1" stop-color="#f0f8f7"/>
    </linearGradient>
  </defs>
  <g id="Link">
    <path class="cls-3" d="M20.54,3.46c.97.97,1.46,2.25,1.46,3.52,0,1.27-.48,2.54-1.45,3.52l-3.55,3.55c-.16.16-.34.31-.52.45-.14.11-.35-.01-.32-.19.12-.81.06-1.64-.18-2.42-.05-.18-.01-.38.12-.52l2.65-2.65c.95-.95.95-2.51,0-3.46-.46-.46-1.08-.72-1.73-.72-.65,0-1.27.25-1.73.72l-3.55,3.55c-.46.46-.72,1.08-.72,1.73,0,.2.03.39.07.57.1.43.32.84.65,1.16.67.67.68,1.77,0,2.44h0c-.21.21-.54.26-.8.1-.35-.21-.68-.46-.98-.76-.43-.43-.77-.92-1.01-1.44-.11-.25-.2-.49-.27-.75-.13-.43-.18-.88-.19-1.33,0-.58.1-1.16.3-1.71.11-.3.25-.6.42-.88.2-.33.44-.64.73-.92l3.55-3.55c.97-.97,2.24-1.45,3.51-1.45,1.27,0,2.55.49,3.52,1.46ZM12.3,9.25h0c-.18.18-.34.38-.43.62-.26.68-.09,1.39.39,1.87.33.33.54.73.64,1.15.2.8-.01,1.68-.64,2.31l-3.55,3.55c-.46.46-1.07.72-1.73.71-.65,0-1.27-.26-1.73-.72s-.72-1.08-.72-1.73c0-.65.25-1.27.71-1.73l2.65-2.65c.14-.14.18-.33.12-.52-.15-.52-.23-1.06-.23-1.61,0-.27.02-.55.06-.82.03-.18-.18-.3-.32-.19-.18.13-.35.28-.51.45l-3.55,3.55c-.97.97-1.45,2.24-1.45,3.51,0,1.27.49,2.55,1.47,3.52s2.25,1.46,3.52,1.46c1.27,0,2.54-.48,3.51-1.45l3.55-3.55c.28-.28.53-.59.73-.92.17-.28.31-.57.42-.88.2-.55.3-1.13.3-1.71,0-.45-.06-.89-.18-1.33-.07-.26-.16-.5-.27-.75-.24-.52-.57-1.01-1.01-1.44-.32-.32-.68-.59-1.05-.8-.22-.13-.51-.09-.69.09Z"/>
    <g class="cls-2">
      <path class="cls-1" d="M17,2v.15c1.3,0,2.51.51,3.43,1.42.91.91,1.42,2.12,1.42,3.41,0,1.29-.5,2.5-1.41,3.41l-3.55,3.55c-.15.16-.32.3-.53.45-.02,0-.03,0-.04-.02-.01-.01-.01-.03-.01-.04.12-.83.06-1.69-.18-2.49-.04-.13,0-.28.09-.37l2.65-2.65c1.01-1.01,1.01-2.66,0-3.68-.49-.49-1.15-.76-1.84-.77-.7,0-1.35.27-1.84.76l-3.55,3.55c-.49.49-.76,1.14-.76,1.84,0,.21.03.42.08.61.11.46.35.89.69,1.23.62.62.62,1.62,0,2.23-.1.1-.23.15-.36.15-.09,0-.18-.02-.26-.07-.35-.21-.67-.46-.95-.74-.41-.41-.74-.88-.98-1.4-.11-.24-.2-.48-.26-.73-.12-.4-.18-.84-.18-1.28,0-.57.1-1.13.29-1.66.11-.29.24-.58.41-.85.2-.32.44-.62.71-.89l3.55-3.55c.91-.91,2.11-1.4,3.4-1.4v-.15M12.7,9.24c.07,0,.15.02.21.06.37.21.72.48,1.02.78.41.41.74.88.98,1.4.11.23.19.47.27.73.12.41.18.84.18,1.29,0,.57-.1,1.13-.29,1.66-.11.29-.24.58-.41.85-.2.32-.43.62-.71.89l-3.55,3.55c-.91.91-2.11,1.4-3.41,1.4-1.29,0-2.5-.51-3.41-1.42-.91-.91-1.42-2.13-1.42-3.41,0-1.29.5-2.5,1.4-3.41l3.55-3.55c.16-.16.32-.3.53-.44.02,0,.03,0,.04.02.01.01.01.03.01.04-.04.28-.06.56-.06.84,0,.56.08,1.12.24,1.65.04.13,0,.28-.09.37l-2.65,2.65c-.49.49-.76,1.14-.76,1.84,0,.69.28,1.35.77,1.84.49.49,1.15.76,1.85.76.69,0,1.34-.27,1.83-.76l3.55-3.55c.64-.64.9-1.58.68-2.45-.11-.46-.34-.89-.68-1.23-.45-.45-.58-1.11-.35-1.71.07-.19.2-.38.39-.57.08-.08.18-.12.3-.12M17,2c-1.27,0-2.53.48-3.5,1.45l-3.55,3.55c-.28.28-.53.59-.73.92-.17.28-.31.58-.42.88-.2.55-.3,1.13-.3,1.71,0,.45.06.89.19,1.33.07.26.16.51.27.75.24.52.58,1.01,1.01,1.44.3.3.63.56.98.76.1.06.22.09.33.09.17,0,.34-.07.47-.19h0c.67-.67.67-1.77,0-2.44-.32-.32-.55-.73-.65-1.16-.05-.19-.07-.38-.07-.57,0-.65.25-1.27.72-1.73l3.55-3.55c.46-.46,1.08-.72,1.73-.72.66,0,1.27.26,1.73.72.96.96.96,2.51,0,3.46l-2.65,2.65c-.14.14-.18.33-.12.52.23.79.29,1.62.18,2.42-.02.13.09.23.2.23.04,0,.08-.01.12-.04.18-.14.35-.28.52-.45l3.55-3.55c.97-.97,1.45-2.24,1.45-3.52,0-1.27-.49-2.54-1.46-3.52-.97-.97-2.25-1.46-3.52-1.46h-.01ZM12.7,9.09c-.15,0-.29.06-.4.17-.18.18-.34.38-.43.62-.26.68-.09,1.39.39,1.87.33.33.54.73.64,1.15.2.8-.01,1.68-.64,2.31l-3.55,3.55c-.46.46-1.07.71-1.72.71,0,0,0,0-.01,0-.65,0-1.27-.26-1.73-.72-.47-.46-.72-1.08-.72-1.73,0-.65.25-1.27.71-1.73l2.65-2.65c.14-.14.18-.33.12-.52-.15-.52-.23-1.06-.23-1.61,0-.27.02-.55.06-.82.02-.13-.09-.24-.2-.24-.04,0-.08.01-.12.04-.18.13-.35.28-.51.45l-3.55,3.55c-.97.97-1.45,2.24-1.45,3.51,0,1.27.49,2.55,1.47,3.52.97.97,2.25,1.46,3.52,1.46,0,0,0,0,0,0,1.27,0,2.54-.48,3.5-1.45l3.55-3.55c.28-.28.53-.59.73-.92.17-.28.31-.57.42-.88.2-.55.3-1.13.3-1.71,0-.45-.06-.89-.18-1.33-.07-.26-.16-.5-.27-.75-.24-.52-.57-1.01-1.01-1.44-.32-.32-.68-.59-1.05-.8-.09-.05-.19-.08-.29-.08h0Z"/>
    </g>
  </g>
</svg>