<?xml version="1.0" encoding="UTF-8"?>
<svg id="Layer_10" data-name="Layer 10" xmlns="http://www.w3.org/2000/svg" xmlns:xlink="http://www.w3.org/1999/xlink" viewBox="0 0 24 24">
  <defs>
    <style>
      .cls-1 {
        fill: #fff;
      }

      .cls-2 {
        opacity: .4;
      }

      .cls-3 {
        fill: url(#linear-gradient);
      }
    </style>
    <linearGradient id="linear-gradient" x1="5.47" y1="7.79" x2="16.78" y2="19.1" gradientUnits="userSpaceOnUse">
      <stop offset="0" stop-color="#e0e2fb"/>
      <stop offset=".25" stop-color="#a8bfe2"/>
      <stop offset=".5" stop-color="#c6f7cf"/>
      <stop offset=".75" stop-color="#abefea"/>
      <stop offset="1" stop-color="#f0f8f7"/>
    </linearGradient>
  </defs>
  <g id="Lock_2">
    <path class="cls-3" d="M18.34,10.88l-.34-.17v-2.71c0-3.31-2.69-6-6-6s-6,2.69-6,6v2.7l-.34.17c-1.02.51-1.66,1.55-1.66,2.69v6.94c0,.83.67,1.5,1.5,1.5h13c.83,0,1.5-.67,1.5-1.5v-6.94c0-1.14-.64-2.18-1.66-2.69ZM13,15.7c0,.17-.13.3-.3.3h-1.4c-.17,0-.3-.13-.3-.3v-3.4c0-.17.13-.3.3-.3h1.4c.17,0,.3.13.3.3v3.4ZM15,9.44c-1.96-.56-4.04-.56-6,0v-1.44c0-1.65,1.35-3,3-3s3,1.35,3,3v1.44Z"/>
    <g class="cls-2">
      <path class="cls-1" d="M12,2.2c3.2,0,5.8,2.6,5.8,5.8v2.83l.11.06.34.17c.96.48,1.55,1.44,1.55,2.51v6.94c0,.72-.58,1.3-1.3,1.3H5.5c-.72,0-1.3-.58-1.3-1.3v-6.94c0-1.07.59-2.03,1.55-2.51l.34-.17.11-.06v-2.83c0-3.2,2.6-5.8,5.8-5.8M8.8,9.7l.25-.07c.96-.27,1.95-.41,2.95-.41,1,0,1.99.14,2.95.41l.25.07v-1.7c0-1.76-1.44-3.2-3.2-3.2s-3.2,1.44-3.2,3.2v1.7M11.3,16.2h1.4c.28,0,.5-.22.5-.5v-3.4c0-.28-.22-.5-.5-.5h-1.4c-.28,0-.5.22-.5.5v3.4c0,.28.22.5.5.5M12,2c-3.31,0-6,2.69-6,6v2.7l-.34.17c-1.02.51-1.66,1.55-1.66,2.69v6.94c0,.83.67,1.5,1.5,1.5h13c.83,0,1.5-.67,1.5-1.5v-6.94c0-1.14-.64-2.18-1.66-2.69l-.34-.17v-2.71c0-3.31-2.69-6-6-6h0ZM9,9.44v-1.44c0-1.65,1.35-3,3-3s3,1.35,3,3v1.44c-.98-.28-1.99-.42-3-.42s-2.02.14-3,.42h0ZM11.3,16c-.17,0-.3-.13-.3-.3v-3.4c0-.17.13-.3.3-.3h1.4c.17,0,.3.13.3.3v3.4c0,.17-.13.3-.3.3h-1.4Z"/>
    </g>
  </g>
</svg>