<?xml version="1.0" encoding="UTF-8"?>
<svg id="Layer_10" data-name="Layer 10" xmlns="http://www.w3.org/2000/svg" xmlns:xlink="http://www.w3.org/1999/xlink" viewBox="0 0 24 24">
  <defs>
    <style>
      .cls-1 {
        fill: #fff;
      }

      .cls-2 {
        opacity: .4;
      }

      .cls-3 {
        fill: url(#linear-gradient);
      }
    </style>
    <linearGradient id="linear-gradient" x1="2" y1="12" x2="22" y2="12" gradientUnits="userSpaceOnUse">
      <stop offset="0" stop-color="#e0e2fb"/>
      <stop offset=".25" stop-color="#a8bfe2"/>
      <stop offset=".5" stop-color="#c6f7cf"/>
      <stop offset=".75" stop-color="#abefea"/>
      <stop offset="1" stop-color="#f0f8f7"/>
    </linearGradient>
  </defs>
  <g id="Rocket">
    <path class="cls-3" d="M20.55,15.31c-.08-.59-.81-.83-1.23-.41l-3.51,3.51c-.33.33-.4.85-.15,1.26l1.1,1.82c.35.58,1.14.67,1.61.2l1.62-1.62c.69-.69,1.01-1.66.87-2.62l-.31-2.14ZM5.59,8.19l3.51-3.51c.42-.42.18-1.14-.41-1.23l-2.14-.31c-.96-.14-1.94.18-2.62.87l-1.62,1.62c-.47.47-.37,1.27.2,1.61l1.82,1.1c.41.24.93.18,1.26-.15ZM18.88,2h-3.49c-.87-.04-1.72.29-2.34.91l-7.16,7.16c-.9.9-1.33,2.15-1.18,3.41.11.89.57,1.7,1.2,2.34.32.32.84.32,1.16,0l1.43-1.43c.3-.3.79-.3,1.1,0,.3.3.3.79,0,1.1l-1.43,1.43c-.32.32-.32.84,0,1.16.63.63,1.45,1.1,2.34,1.2,1.26.15,2.52-.28,3.41-1.18l7.16-7.16c.62-.62.95-1.47.9-2.34v-3.49c0-2-1.25-3.12-3.11-3.12ZM16.91,9.28c-.6.61-1.59.6-2.19,0s-.6-1.59,0-2.19c.6-.61,1.59-.61,2.19,0,.6.6.61,1.59,0,2.19Z"/>
    <g class="cls-2">
      <path class="cls-1" d="M15.25,2.15s.09,0,.15,0h3.49c1.86,0,2.97,1.11,2.97,2.96v3.49c.04.83-.28,1.64-.86,2.22l-7.16,7.16c-.75.75-1.75,1.17-2.81,1.17-.16,0-.32,0-.48-.03-.8-.1-1.6-.51-2.25-1.16-.26-.26-.26-.69,0-.95l1.43-1.43c.36-.36.36-.95,0-1.31-.17-.17-.41-.27-.65-.27s-.48.1-.65.27l-1.43,1.43c-.13.13-.3.2-.48.2s-.35-.07-.48-.2c-.65-.65-1.06-1.45-1.16-2.25-.15-1.22.27-2.42,1.14-3.29l7.16-7.16c.56-.56,1.3-.86,2.08-.86M15.81,9.89c.45,0,.88-.18,1.2-.5.66-.66.66-1.74,0-2.4-.32-.32-.75-.5-1.2-.5s-.88.18-1.2.5c-.32.32-.5.75-.5,1.2s.18.88.5,1.2c.32.32.75.5,1.2.5M6.1,3.26c.14,0,.28.01.42.03l2.14.31c.22.03.39.18.46.39.07.21.02.43-.14.58l-3.51,3.51c-.17.17-.39.26-.62.26-.16,0-.32-.04-.45-.13l-1.82-1.1c-.24-.14-.39-.38-.42-.65-.03-.27.06-.54.25-.73l1.62-1.62c.55-.55,1.29-.86,2.08-.86M19.83,14.84c.25,0,.53.17.57.49l.31,2.14c.13.91-.18,1.85-.83,2.5l-1.62,1.62c-.17.17-.39.26-.62.26-.31,0-.6-.16-.76-.43l-1.1-1.82c-.21-.35-.16-.79.13-1.08l3.51-3.51c.14-.14.29-.17.4-.17M15.25,2c-.82,0-1.61.33-2.19.91l-7.16,7.16c-.9.9-1.33,2.15-1.18,3.41.11.89.57,1.7,1.2,2.34.16.16.37.24.58.24s.42-.08.58-.24l1.43-1.43c.15-.15.35-.23.55-.23s.4.08.55.23c.3.3.3.79,0,1.1l-1.43,1.43c-.32.32-.32.84,0,1.16.63.63,1.45,1.1,2.34,1.2.16.02.33.03.49.03,1.09,0,2.14-.43,2.92-1.21l7.16-7.16c.62-.62.95-1.47.9-2.34v-3.49c0-2-1.25-3.12-3.11-3.12h-3.49s-.1,0-.15,0h0ZM15.81,9.74c-.4,0-.79-.15-1.1-.45-.6-.6-.6-1.59,0-2.19.3-.3.7-.45,1.1-.45s.79.15,1.1.45c.6.6.6,1.59,0,2.19-.3.3-.7.45-1.1.45h0ZM6.1,3.11c-.81,0-1.6.32-2.18.9l-1.62,1.62c-.47.47-.37,1.27.2,1.61l1.82,1.1c.17.1.35.15.53.15.27,0,.53-.1.73-.3l3.51-3.51c.42-.42.18-1.14-.41-1.23l-2.14-.31c-.15-.02-.3-.03-.44-.03h0ZM19.83,14.69c-.18,0-.36.07-.51.21l-3.51,3.51c-.33.33-.4.85-.15,1.26l1.1,1.82c.2.33.54.5.89.5.26,0,.52-.1.73-.3l1.62-1.62c.69-.69,1.01-1.66.87-2.62l-.31-2.14c-.06-.39-.38-.62-.72-.62h0Z"/>
    </g>
  </g>
</svg>