<?xml version="1.0" encoding="UTF-8"?>
<svg id="Layer_10" data-name="Layer 10" xmlns="http://www.w3.org/2000/svg" xmlns:xlink="http://www.w3.org/1999/xlink" viewBox="0 0 24 24">
  <defs>
    <style>
      .cls-1 {
        fill: #fff;
      }

      .cls-2 {
        opacity: .4;
      }

      .cls-3 {
        fill: url(#linear-gradient);
      }
    </style>
    <linearGradient id="linear-gradient" x1="4.84" y1="5.85" x2="18.23" y2="19.23" gradientUnits="userSpaceOnUse">
      <stop offset="0" stop-color="#e0e2fb"/>
      <stop offset=".25" stop-color="#a8bfe2"/>
      <stop offset=".5" stop-color="#c6f7cf"/>
      <stop offset=".75" stop-color="#abefea"/>
      <stop offset="1" stop-color="#f0f8f7"/>
    </linearGradient>
  </defs>
  <g id="Present">
    <path class="cls-3" d="M3,11.8v8.2c0,1.1.9,2,2,2h6.25v-11.2h-7.25c-.55,0-1,.45-1,1ZM20,10.8h-7.25v11.2h6.25c1.1,0,2-.9,2-2v-8.2c0-.55-.45-1-1-1ZM21,5.59h-3.33c.25-.51.34-1.12.17-1.75-.28-1.12-1.39-1.89-2.54-1.84-2,.08-2.82,2.06-3.3,3.07-.49-1.01-1.3-2.98-3.3-3.07-1.15-.05-2.26.72-2.54,1.84-.16.63-.08,1.24.17,1.75h-3.33c-.55,0-1,.45-1,1v2.21c0,.55.45,1,1,1h18c.55,0,1-.45,1-1v-2.21c0-.55-.45-1-1-1ZM8.55,5.59c-.57,0-1.08-.41-1.13-.97,0-.04,0-.08,0-.13,0-.64.52-1.16,1.16-1.16.21,0,.83,0,1.47.91.37.52.56,1.11.62,1.35h-2.1ZM16.59,4.62c-.06.56-.57.97-1.13.97h-2.1c.05-.24.25-.83.62-1.35.64-.91,1.26-.91,1.47-.91.64,0,1.16.52,1.16,1.16,0,.04,0,.09,0,.13Z"/>
    <g class="cls-2">
      <path class="cls-1" d="M8.6,2.2h.09c1.76.08,2.56,1.76,3.04,2.77l.09.19.18.37.18-.37.09-.19c.48-1.01,1.28-2.69,3.04-2.77h.09c1.05,0,2,.71,2.24,1.69.14.56.09,1.12-.16,1.61l-.14.29h3.65c.44,0,.8.36.8.8v2.21c0,.44-.36.8-.8.8H3c-.44,0-.8-.36-.8-.8v-2.21c0-.44.36-.8.8-.8h3.65l-.14-.29c-.25-.5-.3-1.06-.16-1.61.25-.98,1.19-1.69,2.24-1.69M13.1,5.79h2.35c.68,0,1.27-.51,1.33-1.16,0-.05,0-.1,0-.15,0-.75-.61-1.36-1.36-1.36-.23,0-.94,0-1.63.99-.38.54-.59,1.15-.65,1.42l-.06.24M8.55,5.79h2.35l-.06-.24c-.06-.27-.27-.88-.65-1.42-.7-.99-1.4-.99-1.63-.99-.75,0-1.36.61-1.36,1.36,0,.05,0,.1,0,.15.06.65.65,1.15,1.33,1.15M20,11c.44,0,.8.36.8.8v8.2c0,.99-.81,1.8-1.8,1.8h-6.05v-10.8h7.05M11.05,11v10.8h-6.05c-.99,0-1.8-.81-1.8-1.8v-8.2c0-.44.36-.8.8-.8h7.05M15.41,2s-.07,0-.1,0c-2,.08-2.82,2.06-3.3,3.07-.49-1.01-1.3-2.98-3.3-3.07-.03,0-.07,0-.1,0-1.11,0-2.16.76-2.44,1.84-.16.63-.08,1.24.17,1.75h-3.33c-.55,0-1,.45-1,1v2.21c0,.55.45,1,1,1h18c.55,0,1-.45,1-1v-2.21c0-.55-.45-1-1-1h-3.33c.25-.51.34-1.12.17-1.75-.28-1.08-1.32-1.84-2.44-1.84h0ZM13.35,5.59c.05-.24.25-.83.62-1.35.64-.91,1.26-.91,1.47-.91.64,0,1.16.52,1.16,1.16,0,.04,0,.09,0,.13-.06.56-.57.97-1.13.97h-2.1ZM8.55,5.59c-.57,0-1.08-.41-1.13-.97,0-.04,0-.08,0-.13,0-.64.52-1.16,1.16-1.16.21,0,.83,0,1.47.91.37.52.56,1.11.62,1.35h-2.1ZM20,10.8h-7.25v11.2h6.25c1.1,0,2-.9,2-2v-8.2c0-.55-.45-1-1-1h0ZM11.25,10.8h-7.25c-.55,0-1,.45-1,1v8.2c0,1.1.9,2,2,2h6.25v-11.2h0Z"/>
    </g>
  </g>
</svg>