<?xml version="1.0" encoding="UTF-8"?>
<svg id="Layer_10" data-name="Layer 10" xmlns="http://www.w3.org/2000/svg" xmlns:xlink="http://www.w3.org/1999/xlink" viewBox="0 0 24 24">
  <defs>
    <style>
      .cls-1 {
        fill: #fff;
      }

      .cls-2 {
        fill: url(#linear-gradient);
      }

      .cls-3 {
        opacity: .5;
      }
    </style>
    <linearGradient id="linear-gradient" x1="2" y1="12" x2="22" y2="12" gradientUnits="userSpaceOnUse">
      <stop offset="0" stop-color="#e0e2fb"/>
      <stop offset=".25" stop-color="#a8bfe2"/>
      <stop offset=".5" stop-color="#c6f7cf"/>
      <stop offset=".75" stop-color="#abefea"/>
      <stop offset="1" stop-color="#f0f8f7"/>
    </linearGradient>
  </defs>
  <g id="Pencil">
    <path class="cls-2" d="M21.11,5.48l-2.59-2.59c-1.19-1.19-3.13-1.19-4.32,0l-.86.86c-.24.24-.24.63,0,.86l3.21,3.21c.34.34.39.89.09,1.26-.35.42-.98.45-1.36.07l-3.24-3.24c-.24-.24-.63-.24-.86,0L2.54,14.56c-.34.34-.54.81-.54,1.3v4.93c0,.67.55,1.22,1.22,1.22h4.93c.49,0,.95-.19,1.3-.54l11.66-11.66c1.19-1.19,1.19-3.13,0-4.32Z"/>
    <g class="cls-3">
      <path class="cls-1" d="M16.36,2.15c.78,0,1.5.3,2.05.85l2.59,2.59c.55.55.85,1.28.85,2.05s-.3,1.5-.85,2.05l-11.66,11.66c-.32.32-.74.49-1.19.49H3.22c-.59,0-1.07-.48-1.07-1.07v-4.93c0-.45.18-.87.49-1.19L11.28,6.02c.09-.09.2-.13.33-.13s.24.05.33.13l3.24,3.24c.2.2.47.31.75.31.32,0,.62-.14.82-.39.34-.42.3-1.06-.1-1.46l-3.21-3.21c-.09-.09-.13-.2-.13-.33s.05-.24.14-.33l.86-.86c.55-.55,1.28-.85,2.05-.85M16.36,2c-.78,0-1.56.3-2.16.89l-.86.86c-.24.24-.24.63,0,.86l3.21,3.21c.34.34.39.89.09,1.26-.18.22-.45.33-.71.33-.23,0-.47-.09-.65-.27l-3.24-3.24c-.12-.12-.28-.18-.43-.18s-.31.06-.43.18L2.54,14.56c-.34.34-.54.81-.54,1.3v4.93c0,.67.55,1.22,1.22,1.22h4.93c.49,0,.95-.19,1.3-.54l11.66-11.66c1.19-1.19,1.19-3.13,0-4.32l-2.59-2.59c-.6-.6-1.38-.89-2.16-.89h0Z"/>
    </g>
  </g>
</svg>