<?xml version="1.0" encoding="UTF-8"?>
<svg id="Layer_10" data-name="Layer 10" xmlns="http://www.w3.org/2000/svg" xmlns:xlink="http://www.w3.org/1999/xlink" viewBox="0 0 24 24">
  <defs>
    <style>
      .cls-1 {
        fill: #fff;
      }

      .cls-2 {
        opacity: .4;
      }

      .cls-3 {
        fill: url(#linear-gradient);
      }
    </style>
    <linearGradient id="linear-gradient" x1="5.59" y1="5.59" x2="14.5" y2="14.5" gradientUnits="userSpaceOnUse">
      <stop offset="0" stop-color="#e0e2fb"/>
      <stop offset=".25" stop-color="#a8bfe2"/>
      <stop offset=".5" stop-color="#c6f7cf"/>
      <stop offset=".75" stop-color="#abefea"/>
      <stop offset="1" stop-color="#f0f8f7"/>
    </linearGradient>
  </defs>
  <g id="Flash">
    <path class="cls-3" d="M16.79,9.48h-.83c-1.32,0-2.28-1.26-1.94-2.54l.77-2.89c.48-1.79-1.92-2.85-2.91-1.28l-5.95,9.44c-.64,1.01.08,2.33,1.27,2.33h.83c1.32,0,2.28,1.26,1.94,2.54l-.77,2.89c-.48,1.79,1.92,2.85,2.91,1.28l5.95-9.44c.64-1.01-.08-2.33-1.27-2.33Z"/>
    <g class="cls-2">
      <path class="cls-1" d="M13.21,2.2c.45,0,.9.22,1.17.57.18.24.37.65.22,1.22l-.77,2.89c-.18.67-.04,1.38.39,1.93.42.55,1.06.86,1.75.86h.83c.48,0,.91.25,1.14.68.24.43.22.93-.04,1.34l-5.95,9.44c-.27.43-.68.67-1.16.67-.45,0-.9-.22-1.17-.57-.18-.24-.37-.65-.22-1.22l.77-2.89c.18-.67.04-1.38-.39-1.93-.42-.55-1.06-.86-1.75-.86h-.83c-.48,0-.91-.25-1.14-.68-.24-.43-.22-.93.04-1.34L12.06,2.87c.27-.43.68-.67,1.16-.67M13.21,2c-.49,0-.99.23-1.33.76l-5.95,9.44c-.64,1.01.08,2.33,1.27,2.33h.83c1.32,0,2.28,1.26,1.94,2.54l-.77,2.89c-.31,1.18.62,2.04,1.58,2.04.49,0,.99-.23,1.33-.76l5.95-9.44c.64-1.01-.08-2.33-1.27-2.33h-.83c-1.32,0-2.28-1.26-1.94-2.54l.77-2.89c.31-1.18-.62-2.04-1.58-2.04h0Z"/>
    </g>
  </g>
</svg>