<?xml version="1.0" encoding="UTF-8"?>
<svg id="Layer_10" data-name="Layer 10" xmlns="http://www.w3.org/2000/svg" xmlns:xlink="http://www.w3.org/1999/xlink" viewBox="0 0 24 24">
  <defs>
    <style>
      .cls-1 {
        fill: #fff;
      }

      .cls-2 {
        opacity: .4;
      }

      .cls-3 {
        fill: url(#linear-gradient);
      }
    </style>
    <linearGradient id="linear-gradient" x1="6.38" y1="6.01" x2="17.22" y2="16.84" gradientUnits="userSpaceOnUse">
      <stop offset="0" stop-color="#ead0d0"/>
      <stop offset=".25" stop-color="#c17ca5"/>
      <stop offset=".5" stop-color="#edc8db"/>
      <stop offset=".75" stop-color="#d88dcd"/>
      <stop offset="1" stop-color="#f7f0f0"/>
    </linearGradient>
  </defs>
  <g id="Trashcan">
    <path class="cls-3" d="M20,4h-3.78c-.14,0-.28-.06-.37-.16l-1.17-1.29c-.32-.35-.72-.55-1.14-.55h-3.09c-.41,0-.81.19-1.14.55l-1.17,1.29c-.09.1-.23.16-.37.16h-3.78c-.55,0-1,.45-1,1s.45,1,1,1h16c.55,0,1-.45,1-1s-.45-1-1-1ZM19,8H5c-.55,0-1,.45-1,1v9c0,2.21,1.79,4,4,4h8c2.21,0,4-1.79,4-4v-9c0-.55-.45-1-1-1ZM10,17.75c0,.69-.56,1.25-1.25,1.25s-1.25-.56-1.25-1.25v-5.5c0-.69.56-1.25,1.25-1.25s1.25.56,1.25,1.25v5.5ZM16.5,17.75c0,.69-.56,1.25-1.25,1.25s-1.25-.56-1.25-1.25v-5.5c0-.69.56-1.25,1.25-1.25s1.25.56,1.25,1.25v5.5Z"/>
    <g class="cls-2">
      <path class="cls-1" d="M13.54,2.15c.37,0,.73.18,1.02.5l1.17,1.29c.12.14.3.21.48.21h3.78c.47,0,.85.38.85.85s-.38.85-.85.85H4c-.47,0-.85-.38-.85-.85s.38-.85.85-.85h3.78c.18,0,.36-.08.48-.21l1.17-1.29c.29-.32.66-.5,1.02-.5h3.09M19,8.15c.47,0,.85.38.85.85v9c0,2.12-1.73,3.85-3.85,3.85h-8c-2.12,0-3.85-1.73-3.85-3.85v-9c0-.47.38-.85.85-.85h14M15.25,19.15c.77,0,1.4-.63,1.4-1.4v-5.5c0-.77-.63-1.4-1.4-1.4s-1.4.63-1.4,1.4v5.5c0,.77.63,1.4,1.4,1.4M8.75,19.15c.77,0,1.4-.63,1.4-1.4v-5.5c0-.77-.63-1.4-1.4-1.4s-1.4.63-1.4,1.4v5.5c0,.77.63,1.4,1.4,1.4M13.54,2h-3.09c-.41,0-.81.19-1.14.55l-1.17,1.29c-.09.1-.23.16-.37.16h-3.78c-.55,0-1,.45-1,1s.45,1,1,1h16c.55,0,1-.45,1-1s-.45-1-1-1h-3.78c-.14,0-.28-.06-.37-.16l-1.17-1.29c-.32-.35-.72-.55-1.14-.55h0ZM19,8H5c-.55,0-1,.45-1,1v9c0,2.21,1.79,4,4,4h8c2.21,0,4-1.79,4-4v-9c0-.55-.45-1-1-1h0ZM15.25,19c-.69,0-1.25-.56-1.25-1.25v-5.5c0-.69.56-1.25,1.25-1.25s1.25.56,1.25,1.25v5.5c0,.69-.56,1.25-1.25,1.25h0ZM8.75,19c-.69,0-1.25-.56-1.25-1.25v-5.5c0-.69.56-1.25,1.25-1.25s1.25.56,1.25,1.25v5.5c0,.69-.56,1.25-1.25,1.25h0Z"/>
    </g>
  </g>
</svg>