<?xml version="1.0" encoding="UTF-8"?>
<svg id="Layer_10" data-name="Layer 10" xmlns="http://www.w3.org/2000/svg" xmlns:xlink="http://www.w3.org/1999/xlink" viewBox="0 0 24 24">
  <defs>
    <style>
      .cls-1 {
        fill: #fff;
      }

      .cls-2 {
        opacity: .4;
      }

      .cls-3 {
        fill: url(#linear-gradient);
      }
    </style>
    <linearGradient id="linear-gradient" x1="6.45" y1="5.29" x2="17.68" y2="16.51" gradientUnits="userSpaceOnUse">
      <stop offset="0" stop-color="#e0e2fb"/>
      <stop offset=".25" stop-color="#a8bfe2"/>
      <stop offset=".5" stop-color="#c6f7cf"/>
      <stop offset=".75" stop-color="#abefea"/>
      <stop offset="1" stop-color="#f0f8f7"/>
    </linearGradient>
  </defs>
  <g id="Knowledge">
    <path class="cls-3" d="M21.52,7.76l-7.45-3.32c-1.32-.59-2.82-.59-4.14,0l-7.45,3.32c-.64.29-.64,1.2,0,1.49l7.45,3.32c1.32.59,2.82.59,4.14,0l7.45-3.32c.64-.29.64-1.2,0-1.49ZM18.3,12.33l-3.61,1.61c-1.12.5-2.33.67-3.58.51-.67-.09-1.32-.3-1.93-.58l-3.47-1.55c-.33-.15-.7.09-.7.46v3.09c0,.4.16.78.44,1.06l1.01,1.01c1.31,1.31,3.09,2.05,4.95,2.05h1.2c1.86,0,3.64-.74,4.95-2.05l1.01-1.01c.28-.28.44-.66.44-1.06v-3.09c0-.36-.37-.6-.7-.46Z"/>
    <g class="cls-2">
      <path class="cls-1" d="M12,4.2c.69,0,1.36.14,1.99.42l7.45,3.32c.23.1.36.31.36.56s-.14.46-.36.56l-7.45,3.32c-.63.28-1.3.42-1.99.42s-1.36-.14-1.99-.42l-7.45-3.32c-.23-.1-.36-.31-.36-.56s.14-.46.36-.56l7.45-3.32c.63-.28,1.3-.42,1.99-.42M18.5,12.49c.14,0,.3.11.3.3v3.09c0,.34-.14.68-.38.92l-1.01,1.01c-1.28,1.28-2.99,1.99-4.81,1.99h-1.2c-1.82,0-3.52-.71-4.81-1.99l-1.01-1.01c-.25-.25-.38-.57-.38-.92v-3.09c0-.19.16-.3.3-.3.04,0,.08,0,.12.03l3.47,1.55c.71.32,1.36.51,1.99.59.31.04.62.06.92.06.96,0,1.89-.2,2.76-.59l3.61-1.61s.08-.03.12-.03M12,4c-.71,0-1.41.15-2.07.44l-7.45,3.32c-.64.29-.64,1.2,0,1.49l7.45,3.32c.66.29,1.37.44,2.07.44s1.41-.15,2.07-.44l7.45-3.32c.64-.29.64-1.2,0-1.49l-7.45-3.32c-.66-.29-1.37-.44-2.07-.44h0ZM18.5,12.29c-.07,0-.14.01-.2.04l-3.61,1.61c-.85.38-1.75.57-2.68.57-.3,0-.59-.02-.89-.06-.67-.09-1.32-.3-1.93-.58l-3.47-1.55c-.07-.03-.14-.04-.2-.04-.26,0-.5.21-.5.5v3.09c0,.4.16.78.44,1.06l1.01,1.01c1.31,1.31,3.09,2.05,4.95,2.05h1.2c1.86,0,3.64-.74,4.95-2.05l1.01-1.01c.28-.28.44-.66.44-1.06v-3.09c0-.29-.24-.5-.5-.5h0Z"/>
    </g>
  </g>
</svg>