<?xml version="1.0" encoding="UTF-8"?>
<svg id="Layer_10" data-name="Layer 10" xmlns="http://www.w3.org/2000/svg" xmlns:xlink="http://www.w3.org/1999/xlink" viewBox="0 0 24 24">
  <defs>
    <style>
      .cls-1 {
        fill: #fff;
      }

      .cls-2 {
        opacity: .4;
      }

      .cls-3 {
        fill: url(#linear-gradient);
      }
    </style>
    <linearGradient id="linear-gradient" x1="4.84" y1="5.85" x2="18.23" y2="19.23" gradientUnits="userSpaceOnUse">
      <stop offset="0" stop-color="#e0e2fb"/>
      <stop offset=".25" stop-color="#a8bfe2"/>
      <stop offset=".5" stop-color="#c6f7cf"/>
      <stop offset=".75" stop-color="#abefea"/>
      <stop offset="1" stop-color="#f0f8f7"/>
    </linearGradient>
  </defs>
  <g id="Present">
    <path class="cls-3" d="M3,11.8v8.2c0,1.1.9,2,2,2h6.25v-11.2h-7.25c-.55,0-1,.45-1,1ZM20,10.8h-7.25v11.2h6.25c1.1,0,2-.9,2-2v-8.2c0-.55-.45-1-1-1ZM21,5.59h-3.33c.25-.51.34-1.12.17-1.75-.28-1.12-1.39-1.89-2.54-1.84-2,.08-2.82,2.06-3.3,3.07-.49-1.01-1.3-2.98-3.3-3.07-1.15-.05-2.26.72-2.54,1.84-.16.63-.08,1.24.17,1.75h-3.33c-.55,0-1,.45-1,1v2.21c0,.55.45,1,1,1h18c.55,0,1-.45,1-1v-2.21c0-.55-.45-1-1-1ZM8.55,5.59c-.57,0-1.08-.41-1.13-.97,0-.04,0-.08,0-.13,0-.64.52-1.16,1.16-1.16.21,0,.83,0,1.47.91.37.52.56,1.11.62,1.35h-2.1ZM16.59,4.62c-.06.56-.57.97-1.13.97h-2.1c.05-.24.25-.83.62-1.35.64-.91,1.26-.91,1.47-.91.64,0,1.16.52,1.16,1.16,0,.04,0,.09,0,.13Z"/>
    <g class="cls-2">
      <path class="cls-1" d="M8.6,2.15s.06,0,.1,0c1.79.07,2.6,1.78,3.09,2.8l.09.19.14.28.14-.28.09-.19c.48-1.02,1.29-2.72,3.09-2.8.03,0,.06,0,.1,0,1.07,0,2.04.73,2.29,1.73.14.57.09,1.14-.16,1.65l-.11.22h3.57c.47,0,.85.38.85.85v2.21c0,.47-.38.85-.85.85H3c-.47,0-.85-.38-.85-.85v-2.21c0-.47.38-.85.85-.85h3.57l-.11-.22c-.25-.51-.31-1.08-.16-1.65.25-1,1.22-1.73,2.29-1.73M13.17,5.74h2.29c.66,0,1.22-.49,1.28-1.11,0-.05,0-.09,0-.14,0-.72-.59-1.31-1.31-1.31-.23,0-.91,0-1.59.97-.38.54-.58,1.13-.64,1.4l-.04.18M8.55,5.74h2.29l-.04-.18c-.06-.27-.26-.87-.64-1.4-.68-.97-1.37-.97-1.59-.97-.72,0-1.31.59-1.31,1.31,0,.05,0,.1,0,.14.06.62.63,1.11,1.28,1.11M20,10.95c.47,0,.85.38.85.85v8.2c0,1.02-.83,1.85-1.85,1.85h-6.1v-10.9h7.1M11.1,10.95v10.9h-6.1c-1.02,0-1.85-.83-1.85-1.85v-8.2c0-.47.38-.85.85-.85h7.1M15.41,2s-.07,0-.1,0c-2,.08-2.82,2.06-3.3,3.07-.49-1.01-1.3-2.98-3.3-3.07-.03,0-.07,0-.1,0-1.11,0-2.16.76-2.44,1.84-.16.63-.08,1.24.17,1.75h-3.33c-.55,0-1,.45-1,1v2.21c0,.55.45,1,1,1h18c.55,0,1-.45,1-1v-2.21c0-.55-.45-1-1-1h-3.33c.25-.51.34-1.12.17-1.75-.28-1.08-1.32-1.84-2.44-1.84h0ZM13.35,5.59c.05-.24.25-.83.62-1.35.64-.91,1.26-.91,1.47-.91.64,0,1.16.52,1.16,1.16,0,.04,0,.09,0,.13-.06.56-.57.97-1.13.97h-2.1ZM8.55,5.59c-.57,0-1.08-.41-1.13-.97,0-.04,0-.08,0-.13,0-.64.52-1.16,1.16-1.16.21,0,.83,0,1.47.91.37.52.56,1.11.62,1.35h-2.1ZM20,10.8h-7.25v11.2h6.25c1.1,0,2-.9,2-2v-8.2c0-.55-.45-1-1-1h0ZM11.25,10.8h-7.25c-.55,0-1,.45-1,1v8.2c0,1.1.9,2,2,2h6.25v-11.2h0Z"/>
    </g>
  </g>
</svg>