<?xml version="1.0" encoding="UTF-8"?>
<svg id="Layer_10" data-name="Layer 10" xmlns="http://www.w3.org/2000/svg" xmlns:xlink="http://www.w3.org/1999/xlink" viewBox="0 0 24 24">
  <defs>
    <style>
      .cls-1 {
        fill: #fff;
      }

      .cls-2 {
        opacity: .4;
      }

      .cls-3 {
        fill: url(#linear-gradient);
      }
    </style>
    <linearGradient id="linear-gradient" x1="5.85" y1="5.85" x2="17.97" y2="17.97" gradientUnits="userSpaceOnUse">
      <stop offset="0" stop-color="#e0e2fb"/>
      <stop offset=".25" stop-color="#a8bfe2"/>
      <stop offset=".5" stop-color="#c6f7cf"/>
      <stop offset=".75" stop-color="#abefea"/>
      <stop offset="1" stop-color="#f0f8f7"/>
    </linearGradient>
  </defs>
  <g id="FAQ_2">
    <path class="cls-3" d="M19.16,6.13l-5.66-3.27c-.93-.54-2.07-.54-3,0l-5.66,3.27c-.93.54-1.5,1.53-1.5,2.6v6.54c0,1.07.57,2.06,1.5,2.6l5.66,3.27c.93.54,2.07.54,3,0l5.66-3.27c.93-.54,1.5-1.53,1.5-2.6v-6.54c0-1.07-.57-2.06-1.5-2.6ZM16,18.55c-.49.28-.89.11-.89-.37s.4-1.12.89-1.4c.49-.28.89-.11.89.37s-.4,1.12-.89,1.4ZM17.22,13.22c-.31.28-.51.68-.51,1.01v.37c0,.39-.32.89-.71,1.12-.39.23-.71.09-.71-.3v-.37c0-.94.6-2.11,1.49-2.92.38-.35.64-.86.64-1.26,0-.52-.42-.7-.94-.4l-.96.55c-.52.3-.94.96-.94,1.48v.48c0,.39-.32.89-.71,1.12-.39.23-.71.09-.71-.3v-.48c0-1.3,1.06-2.97,2.36-3.72l.96-.55c1.3-.75,2.36-.3,2.36,1,0,1.02-.65,2.29-1.61,3.17Z"/>
    <g class="cls-2">
      <path class="cls-1" d="M12,2.66c.49,0,.97.13,1.4.38l5.66,3.27c.86.5,1.4,1.43,1.4,2.42v6.54c0,1-.54,1.93-1.4,2.42l-5.66,3.27c-.43.25-.91.38-1.4.38s-.97-.13-1.4-.38l-5.66-3.27c-.86-.5-1.4-1.43-1.4-2.42v-6.54c0-1,.54-1.93,1.4-2.42l5.66-3.27c.43-.25.91-.38,1.4-.38M13.52,14.42c.14,0,.3-.05.45-.14.45-.26.81-.83.81-1.29v-.48c0-.45.38-1.04.84-1.31l.96-.55c.13-.08.26-.12.37-.12.22,0,.27.19.27.34,0,.35-.24.8-.58,1.11-.93.84-1.55,2.08-1.55,3.06v.37c0,.36.22.61.56.61.14,0,.3-.05.45-.14.45-.26.81-.83.81-1.29v-.37c0-.27.18-.62.45-.86,1-.91,1.68-2.25,1.68-3.32,0-.47-.13-.87-.38-1.14-.25-.27-.59-.42-1-.42-.39,0-.83.14-1.28.39l-.96.55c-1.35.78-2.46,2.53-2.46,3.89v.48c0,.36.22.61.56.61M15.56,18.89c.17,0,.36-.06.54-.16.55-.32.99-1.01.99-1.57,0-.43-.26-.71-.64-.71-.17,0-.36.06-.54.16-.55.32-.99,1.01-.99,1.57,0,.43.26.71.64.71M12,2.46c-.52,0-1.04.13-1.5.4l-5.66,3.27c-.93.54-1.5,1.53-1.5,2.6v6.54c0,1.07.57,2.06,1.5,2.6l5.66,3.27c.46.27.98.4,1.5.4s1.04-.13,1.5-.4l5.66-3.27c.93-.54,1.5-1.53,1.5-2.6v-6.54c0-1.07-.57-2.06-1.5-2.6l-5.66-3.27c-.46-.27-.98-.4-1.5-.4h0ZM13.52,14.22c-.21,0-.36-.15-.36-.41v-.48c0-1.3,1.06-2.97,2.36-3.72l.96-.55c.43-.25.83-.36,1.18-.36.71,0,1.18.49,1.18,1.36,0,1.02-.65,2.29-1.61,3.17-.31.28-.51.68-.51,1.01v.37c0,.39-.32.89-.71,1.12-.13.07-.25.11-.35.11-.21,0-.36-.15-.36-.41v-.37c0-.94.6-2.11,1.49-2.92.38-.35.64-.86.64-1.26,0-.35-.19-.54-.47-.54-.14,0-.3.05-.47.14l-.96.55c-.52.3-.94.96-.94,1.48v.48c0,.39-.32.89-.71,1.12-.13.07-.25.11-.35.11h0ZM15.56,18.69c-.27,0-.44-.18-.44-.51,0-.49.4-1.12.89-1.4.16-.09.31-.14.44-.14.27,0,.44.18.44.51,0,.49-.4,1.12-.89,1.4-.16.09-.31.14-.44.14h0Z"/>
    </g>
  </g>
</svg>